<?xml version="1.0" standalone="no"?>
<!DOCTYPE svg PUBLIC "-//W3C//DTD SVG 1.1//EN" 
  "http://www.w3.org/Graphics/SVG/1.1/DTD/svg11.dtd">
<svg width="2048" height="2048" viewBox="0 0 2048 2048"
     xmlns="http://www.w3.org/2000/svg" version="1.1">
<desc>OPCDcourseconversion_postCUT.blend, (Blender 3.3.1)</desc>
<polygon stroke="black" stroke-width="1" fill="rgb(204, 41, 128)" fill-opacity="0.25" points="1530.166,201.441 1541.661,201.545 1542.401,189.264 1530.012,189.150 " />
<polygon stroke="black" stroke-width="1" fill="rgb(204, 41, 128)" fill-opacity="0.25" points="1327.170,467.291 1317.066,501.059 1328.838,504.581 1338.988,470.662 " />
<polygon stroke="black" stroke-width="1" fill="rgb(204, 41, 128)" fill-opacity="0.25" points="1272.676,504.522 1284.369,498.959 1279.073,487.870 1267.407,493.420 " />
<polygon stroke="black" stroke-width="1" fill="rgb(204, 41, 128)" fill-opacity="0.25" points="1260.239,510.411 1272.676,504.522 1267.407,493.420 1254.991,499.300 " />
<polygon stroke="black" stroke-width="1" fill="rgb(204, 41, 128)" fill-opacity="0.25" points="1247.658,516.338 1260.239,510.411 1254.991,499.300 1242.435,505.214 " />
<polygon stroke="black" stroke-width="1" fill="rgb(204, 41, 128)" fill-opacity="0.25" points="1235.540,522.008 1247.658,516.338 1242.435,505.214 1230.349,510.870 " />
<polygon stroke="black" stroke-width="1" fill="rgb(204, 41, 128)" fill-opacity="0.25" points="1224.486,527.137 1235.540,522.008 1230.349,510.870 1219.343,515.978 " />
<polygon stroke="black" stroke-width="1" fill="rgb(204, 41, 128)" fill-opacity="0.25" points="1215.027,531.466 1224.486,527.137 1219.343,515.978 1210.027,520.241 " />
<polygon stroke="black" stroke-width="1" fill="rgb(204, 41, 128)" fill-opacity="0.25" points="1041.338,609.425 1051.002,602.167 1043.641,592.328 1033.947,599.608 " />
<polygon stroke="black" stroke-width="1" fill="rgb(204, 41, 128)" fill-opacity="0.25" points="1031.588,616.783 1041.338,609.425 1033.947,599.608 1024.173,606.984 " />
<polygon stroke="black" stroke-width="1" fill="rgb(204, 41, 128)" fill-opacity="0.25" points="1286.613,602.825 1271.371,654.072 1283.149,657.575 1298.388,606.338 " />
<polygon stroke="black" stroke-width="1" fill="rgb(204, 41, 128)" fill-opacity="0.25" points="1022.209,623.902 1031.588,616.783 1024.173,606.984 1014.763,614.127 " />
<polygon stroke="black" stroke-width="1" fill="rgb(204, 41, 128)" fill-opacity="0.25" points="1013.702,630.406 1022.209,623.902 1014.763,614.127 1006.162,620.703 " />
<polygon stroke="black" stroke-width="1" fill="rgb(204, 41, 128)" fill-opacity="0.25" points="1295.654,636.539 1252.434,682.802 1261.389,691.216 1271.543,680.347 " />
<polygon stroke="black" stroke-width="1" fill="rgb(204, 41, 128)" fill-opacity="0.25" points="1252.434,682.802 1238.781,697.252 1247.702,705.702 1261.389,691.216 " />
<polygon stroke="black" stroke-width="1" fill="rgb(204, 41, 128)" fill-opacity="0.25" points="1238.781,697.252 1222.444,714.463 1231.352,722.927 1247.702,705.702 " />
<polygon stroke="black" stroke-width="1" fill="rgb(204, 41, 128)" fill-opacity="0.25" points="1222.444,714.463 1204.303,733.539 1213.209,742.006 1231.352,722.927 " />
<polygon stroke="black" stroke-width="1" fill="rgb(204, 41, 128)" fill-opacity="0.25" points="910.334,750.644 915.061,741.341 904.123,735.742 899.379,745.077 " />
<polygon stroke="black" stroke-width="1" fill="rgb(204, 41, 128)" fill-opacity="0.25" points="1204.303,733.539 1185.232,753.600 1194.142,762.062 1213.209,742.006 " />
<polygon stroke="black" stroke-width="1" fill="rgb(204, 41, 128)" fill-opacity="0.25" points="905.577,760.005 910.334,750.644 899.379,745.077 894.637,754.409 " />
<polygon stroke="black" stroke-width="1" fill="rgb(204, 41, 128)" fill-opacity="0.25" points="1185.232,753.600 1166.098,773.766 1175.021,782.214 1194.142,762.062 " />
<polygon stroke="black" stroke-width="1" fill="rgb(204, 41, 128)" fill-opacity="0.25" points="1166.098,773.766 1147.772,793.158 1156.716,801.583 1175.021,782.214 " />
<polygon stroke="black" stroke-width="1" fill="rgb(204, 41, 128)" fill-opacity="0.25" points="1147.772,793.158 1131.113,810.902 1140.095,819.286 1156.716,801.583 " />
<polygon stroke="black" stroke-width="1" fill="rgb(204, 41, 128)" fill-opacity="0.25" points="858.666,825.363 866.168,817.539 857.246,809.089 849.820,816.834 " />
<polygon stroke="black" stroke-width="1" fill="rgb(204, 41, 128)" fill-opacity="0.25" points="850.828,833.452 858.666,825.363 849.820,816.834 842.022,824.881 " />
<polygon stroke="black" stroke-width="1" fill="rgb(204, 41, 128)" fill-opacity="0.25" points="1131.113,810.902 1116.974,826.137 1126.030,834.444 1140.095,819.286 " />
<polygon stroke="black" stroke-width="1" fill="rgb(204, 41, 128)" fill-opacity="0.25" points="842.949,841.514 850.828,833.452 842.022,824.881 834.177,832.908 " />
<polygon stroke="black" stroke-width="1" fill="rgb(204, 41, 128)" fill-opacity="0.25" points="835.341,849.239 842.949,841.514 834.177,832.908 826.609,840.592 " />
<polygon stroke="black" stroke-width="1" fill="rgb(204, 41, 128)" fill-opacity="0.25" points="1116.974,826.137 1106.025,838.209 1115.389,846.177 1126.030,834.444 " />
<polygon stroke="black" stroke-width="1" fill="rgb(204, 41, 128)" fill-opacity="0.25" points="1093.938,853.366 1086.051,864.647 1096.163,871.628 1103.786,860.725 " />
<polygon stroke="black" stroke-width="1" fill="rgb(204, 41, 128)" fill-opacity="0.25" points="1086.051,864.647 1076.489,878.675 1086.668,885.559 1096.163,871.628 " />
<polygon stroke="black" stroke-width="1" fill="rgb(204, 41, 128)" fill-opacity="0.25" points="784.418,895.658 798.434,883.844 790.471,874.484 776.505,886.256 " />
<polygon stroke="black" stroke-width="1" fill="rgb(204, 41, 128)" fill-opacity="0.25" points="1076.489,878.675 1065.570,894.950 1075.792,901.769 1086.668,885.559 " />
<polygon stroke="black" stroke-width="1" fill="rgb(204, 41, 128)" fill-opacity="0.25" points="767.405,909.955 784.418,895.658 776.505,886.256 759.502,900.547 " />
<polygon stroke="black" stroke-width="1" fill="rgb(204, 41, 128)" fill-opacity="0.25" points="748.296,926.003 767.405,909.955 759.502,900.547 740.391,916.595 " />
<polygon stroke="black" stroke-width="1" fill="rgb(204, 41, 128)" fill-opacity="0.25" points="1065.570,894.950 1053.773,912.736 1064.030,919.505 1075.792,901.769 " />
<polygon stroke="black" stroke-width="1" fill="rgb(204, 41, 128)" fill-opacity="0.25" points="728.018,943.050 748.296,926.003 740.391,916.595 720.105,933.648 " />
<polygon stroke="black" stroke-width="1" fill="rgb(204, 41, 128)" fill-opacity="0.25" points="1053.773,912.736 1041.588,931.292 1051.874,938.016 1064.030,919.505 " />
<polygon stroke="black" stroke-width="1" fill="rgb(204, 41, 128)" fill-opacity="0.25" points="707.502,960.338 728.018,943.050 720.105,933.648 699.574,950.948 " />
<polygon stroke="black" stroke-width="1" fill="rgb(204, 41, 128)" fill-opacity="0.25" points="1041.588,931.292 1029.501,949.873 1039.816,956.550 1051.874,938.016 " />
<polygon stroke="black" stroke-width="1" fill="rgb(204, 41, 128)" fill-opacity="0.25" points="687.682,977.106 707.502,960.338 699.574,950.948 679.730,967.739 " />
<polygon stroke="black" stroke-width="1" fill="rgb(204, 41, 128)" fill-opacity="0.25" points="1029.501,949.873 1018.000,967.733 1028.351,974.356 1039.816,956.550 " />
<polygon stroke="black" stroke-width="1" fill="rgb(204, 41, 128)" fill-opacity="0.25" points="669.495,992.597 687.682,977.106 679.730,967.739 661.502,983.264 " />
<polygon stroke="black" stroke-width="1" fill="rgb(204, 41, 128)" fill-opacity="0.25" points="1018.000,967.733 1007.574,984.130 1017.970,990.681 1028.351,974.356 " />
<polygon stroke="black" stroke-width="1" fill="rgb(204, 41, 128)" fill-opacity="0.25" points="653.887,1006.036 669.495,992.597 661.502,983.264 645.823,996.764 " />
<polygon stroke="black" stroke-width="1" fill="rgb(204, 41, 128)" fill-opacity="0.25" points="1007.574,984.130 998.702,998.338 1009.168,1004.777 1017.970,990.681 " />
<polygon stroke="black" stroke-width="1" fill="rgb(204, 41, 128)" fill-opacity="0.25" points="641.846,1016.616 653.887,1006.036 645.823,996.764 633.623,1007.483 " />
<polygon stroke="black" stroke-width="1" fill="rgb(204, 41, 128)" fill-opacity="0.25" points="998.702,998.338 991.707,1009.881 1002.436,1015.887 1009.168,1004.777 " />
<polygon stroke="black" stroke-width="1" fill="rgb(204, 41, 128)" fill-opacity="0.25" points="634.434,1023.453 641.846,1016.616 633.623,1007.483 625.835,1014.667 " />
<polygon stroke="black" stroke-width="1" fill="rgb(204, 41, 128)" fill-opacity="0.25" points="626.479,1031.713 634.434,1023.453 625.835,1014.667 617.545,1023.275 " />
<polygon stroke="black" stroke-width="1" fill="rgb(204, 41, 128)" fill-opacity="0.25" points="613.001,1046.270 626.479,1031.713 617.545,1023.275 603.952,1037.958 " />
<polygon stroke="black" stroke-width="1" fill="rgb(204, 41, 128)" fill-opacity="0.25" points="983.618,1025.578 978.479,1037.638 989.820,1042.370 994.746,1030.808 " />
<polygon stroke="black" stroke-width="1" fill="rgb(204, 41, 128)" fill-opacity="0.25" points="595.257,1065.737 613.001,1046.270 603.952,1037.958 586.157,1057.480 " />
<polygon stroke="black" stroke-width="1" fill="rgb(204, 41, 128)" fill-opacity="0.25" points="978.479,1037.638 972.391,1052.536 983.785,1057.138 989.820,1042.370 " />
<polygon stroke="black" stroke-width="1" fill="rgb(204, 41, 128)" fill-opacity="0.25" points="972.391,1052.536 965.516,1069.767 976.941,1074.292 983.785,1057.138 " />
<polygon stroke="black" stroke-width="1" fill="rgb(204, 41, 128)" fill-opacity="0.25" points="574.395,1088.831 595.257,1065.737 586.157,1057.480 565.264,1080.609 " />
<polygon stroke="black" stroke-width="1" fill="rgb(204, 41, 128)" fill-opacity="0.25" points="965.516,1069.767 958.137,1088.542 969.581,1093.017 976.941,1074.292 " />
<polygon stroke="black" stroke-width="1" fill="rgb(204, 41, 128)" fill-opacity="0.25" points="551.527,1114.309 574.395,1088.831 565.264,1080.609 542.372,1106.112 " />
<polygon stroke="black" stroke-width="1" fill="rgb(204, 41, 128)" fill-opacity="0.25" points="958.137,1088.542 950.545,1108.056 962.003,1112.497 969.581,1093.017 " />
<polygon stroke="black" stroke-width="1" fill="rgb(204, 41, 128)" fill-opacity="0.25" points="527.759,1140.928 551.527,1114.309 542.372,1106.112 518.583,1132.756 " />
<polygon stroke="black" stroke-width="1" fill="rgb(204, 41, 128)" fill-opacity="0.25" points="950.545,1108.056 943.038,1127.497 954.505,1131.914 962.003,1112.497 " />
<polygon stroke="black" stroke-width="1" fill="rgb(204, 41, 128)" fill-opacity="0.25" points="943.038,1127.497 935.908,1146.050 947.380,1150.452 954.505,1131.914 " />
<polygon stroke="black" stroke-width="1" fill="rgb(204, 41, 128)" fill-opacity="0.25" points="504.195,1167.456 527.759,1140.928 518.583,1132.756 494.997,1159.308 " />
<polygon stroke="black" stroke-width="1" fill="rgb(204, 41, 128)" fill-opacity="0.25" points="935.908,1146.050 929.452,1162.900 940.928,1167.294 947.380,1150.452 " />
<polygon stroke="black" stroke-width="1" fill="rgb(204, 41, 128)" fill-opacity="0.25" points="481.939,1192.653 504.195,1167.456 494.997,1159.308 472.715,1184.534 " />
<polygon stroke="black" stroke-width="1" fill="rgb(204, 41, 128)" fill-opacity="0.25" points="929.452,1162.900 923.971,1177.220 935.443,1181.625 940.928,1167.294 " />
<polygon stroke="black" stroke-width="1" fill="rgb(204, 41, 128)" fill-opacity="0.25" points="462.101,1215.278 481.939,1192.653 472.715,1184.534 452.839,1207.202 " />
<polygon stroke="black" stroke-width="1" fill="rgb(204, 41, 128)" fill-opacity="0.25" points="445.796,1234.080 462.101,1215.278 452.839,1207.202 436.470,1226.078 " />
<polygon stroke="black" stroke-width="1" fill="rgb(204, 41, 128)" fill-opacity="0.25" points="911.016,1210.836 906.430,1222.834 917.909,1227.222 922.488,1215.241 " />
<polygon stroke="black" stroke-width="1" fill="rgb(204, 41, 128)" fill-opacity="0.25" points="434.372,1247.534 445.796,1234.080 436.470,1226.078 424.709,1239.931 " />
<polygon stroke="black" stroke-width="1" fill="rgb(204, 41, 128)" fill-opacity="0.25" points="906.430,1222.834 901.130,1236.700 912.607,1241.092 917.909,1227.222 " />
<polygon stroke="black" stroke-width="1" fill="rgb(204, 41, 128)" fill-opacity="0.25" points="901.130,1236.700 895.341,1251.811 906.812,1256.216 912.607,1241.092 " />
<polygon stroke="black" stroke-width="1" fill="rgb(204, 41, 128)" fill-opacity="0.25" points="420.355,1268.370 425.237,1260.080 414.952,1253.330 409.715,1262.222 " />
<polygon stroke="black" stroke-width="1" fill="rgb(204, 41, 128)" fill-opacity="0.25" points="895.341,1251.811 889.291,1267.533 900.755,1271.958 906.812,1256.216 " />
<polygon stroke="black" stroke-width="1" fill="rgb(204, 41, 128)" fill-opacity="0.25" points="413.988,1279.603 420.355,1268.370 409.715,1262.222 403.268,1273.597 " />
<polygon stroke="black" stroke-width="1" fill="rgb(204, 41, 128)" fill-opacity="0.25" points="889.291,1267.533 883.212,1283.228 894.663,1287.684 900.755,1271.958 " />
<polygon stroke="black" stroke-width="1" fill="rgb(204, 41, 128)" fill-opacity="0.25" points="406.703,1292.758 413.988,1279.603 403.268,1273.597 395.933,1286.842 " />
<polygon stroke="black" stroke-width="1" fill="rgb(204, 41, 128)" fill-opacity="0.25" points="398.840,1307.195 406.703,1292.758 395.933,1286.842 388.032,1301.348 " />
<polygon stroke="black" stroke-width="1" fill="rgb(204, 41, 128)" fill-opacity="0.25" points="883.212,1283.228 877.334,1298.261 888.767,1302.764 894.663,1287.684 " />
<polygon stroke="black" stroke-width="1" fill="rgb(204, 41, 128)" fill-opacity="0.25" points="390.726,1322.295 398.840,1307.195 388.032,1301.348 379.887,1316.508 " />
<polygon stroke="black" stroke-width="1" fill="rgb(204, 41, 128)" fill-opacity="0.25" points="877.334,1298.261 871.905,1311.948 883.296,1316.558 888.767,1302.764 " />
<polygon stroke="black" stroke-width="1" fill="rgb(204, 41, 128)" fill-opacity="0.25" points="382.688,1337.442 390.726,1322.295 379.887,1316.508 371.819,1331.711 " />
<polygon stroke="black" stroke-width="1" fill="rgb(204, 41, 128)" fill-opacity="0.25" points="375.052,1352.016 382.688,1337.442 371.819,1331.711 364.150,1346.345 " />
<polygon stroke="black" stroke-width="1" fill="rgb(204, 41, 128)" fill-opacity="0.25" points="368.146,1365.394 375.052,1352.016 364.150,1346.345 357.204,1359.803 " />
<polygon stroke="black" stroke-width="1" fill="rgb(204, 41, 128)" fill-opacity="0.25" points="857.401,1344.392 851.680,1354.073 862.223,1360.386 868.180,1350.305 " />
<polygon stroke="black" stroke-width="1" fill="rgb(204, 41, 128)" fill-opacity="0.25" points="362.302,1376.948 368.146,1365.394 357.204,1359.803 351.300,1371.477 " />
<polygon stroke="black" stroke-width="1" fill="rgb(204, 41, 128)" fill-opacity="0.25" points="851.680,1354.073 843.844,1366.989 854.328,1373.398 862.223,1360.386 " />
<polygon stroke="black" stroke-width="1" fill="rgb(204, 41, 128)" fill-opacity="0.25" points="357.974,1385.800 362.302,1376.948 351.300,1371.477 346.763,1380.755 " />
<polygon stroke="black" stroke-width="1" fill="rgb(204, 41, 128)" fill-opacity="0.25" points="843.844,1366.989 834.520,1382.127 844.967,1388.595 854.328,1373.398 " />
<polygon stroke="black" stroke-width="1" fill="rgb(204, 41, 128)" fill-opacity="0.25" points="834.520,1382.127 824.190,1398.730 834.612,1405.239 844.967,1388.595 " />
<polygon stroke="black" stroke-width="1" fill="rgb(204, 41, 128)" fill-opacity="0.25" points="349.569,1408.002 352.935,1398.030 341.421,1393.719 337.900,1404.148 " />
<polygon stroke="black" stroke-width="1" fill="rgb(204, 41, 128)" fill-opacity="0.25" points="345.287,1421.266 349.569,1408.002 337.900,1404.148 333.579,1417.534 " />
<polygon stroke="black" stroke-width="1" fill="rgb(204, 41, 128)" fill-opacity="0.25" points="824.190,1398.730 813.334,1416.041 823.734,1422.584 834.612,1405.239 " />
<polygon stroke="black" stroke-width="1" fill="rgb(204, 41, 128)" fill-opacity="0.25" points="340.416,1436.752 345.287,1421.266 333.579,1417.534 328.685,1433.095 " />
<polygon stroke="black" stroke-width="1" fill="rgb(204, 41, 128)" fill-opacity="0.25" points="813.334,1416.041 802.427,1433.316 812.807,1439.892 823.734,1422.584 " />
<polygon stroke="black" stroke-width="1" fill="rgb(204, 41, 128)" fill-opacity="0.25" points="335.198,1453.655 340.416,1436.752 328.685,1433.095 323.449,1450.052 " />
<polygon stroke="black" stroke-width="1" fill="rgb(204, 41, 128)" fill-opacity="0.25" points="802.427,1433.316 791.941,1449.811 802.300,1456.420 812.807,1439.892 " />
<polygon stroke="black" stroke-width="1" fill="rgb(204, 41, 128)" fill-opacity="0.25" points="329.859,1471.184 335.198,1453.655 323.449,1450.052 318.098,1467.625 " />
<polygon stroke="black" stroke-width="1" fill="rgb(204, 41, 128)" fill-opacity="0.25" points="791.941,1449.811 782.355,1464.777 792.688,1471.428 802.300,1456.420 " />
<polygon stroke="black" stroke-width="1" fill="rgb(204, 41, 128)" fill-opacity="0.25" points="324.636,1488.555 329.859,1471.184 318.098,1467.625 312.862,1485.036 " />
<polygon stroke="black" stroke-width="1" fill="rgb(204, 41, 128)" fill-opacity="0.25" points="782.355,1464.777 774.173,1477.420 784.440,1484.172 792.688,1471.428 " />
<polygon stroke="black" stroke-width="1" fill="rgb(204, 41, 128)" fill-opacity="0.25" points="319.755,1504.983 324.636,1488.555 312.862,1485.036 307.970,1501.505 " />
<polygon stroke="black" stroke-width="1" fill="rgb(204, 41, 128)" fill-opacity="0.25" points="315.457,1519.653 319.755,1504.983 307.970,1501.505 303.649,1516.250 " />
<polygon stroke="black" stroke-width="1" fill="rgb(204, 41, 128)" fill-opacity="0.25" points="753.621,1505.811 745.248,1516.022 754.730,1523.838 763.198,1513.511 " />
<polygon stroke="black" stroke-width="1" fill="rgb(204, 41, 128)" fill-opacity="0.25" points="745.248,1516.022 735.421,1527.883 744.873,1535.736 754.730,1523.838 " />
<polygon stroke="black" stroke-width="1" fill="rgb(204, 41, 128)" fill-opacity="0.25" points="735.421,1527.883 724.697,1540.756 734.132,1548.628 744.873,1535.736 " />
<polygon stroke="black" stroke-width="1" fill="rgb(204, 41, 128)" fill-opacity="0.25" points="724.697,1540.756 713.588,1554.050 723.016,1561.931 734.132,1548.628 " />
<polygon stroke="black" stroke-width="1" fill="rgb(204, 41, 128)" fill-opacity="0.25" points="713.588,1554.050 702.603,1567.184 712.032,1575.064 723.016,1561.931 " />
<polygon stroke="black" stroke-width="1" fill="rgb(204, 41, 128)" fill-opacity="0.25" points="702.603,1567.184 692.252,1579.578 701.690,1587.447 712.032,1575.064 " />
<polygon stroke="black" stroke-width="1" fill="rgb(204, 41, 128)" fill-opacity="0.25" points="692.252,1579.578 683.034,1590.655 692.496,1598.495 701.690,1587.447 " />
<polygon stroke="black" stroke-width="1" fill="rgb(204, 41, 128)" fill-opacity="0.25" points="683.034,1590.655 675.400,1599.908 684.958,1607.631 692.496,1598.495 " />
<polygon stroke="black" stroke-width="1" fill="rgb(204, 41, 128)" fill-opacity="0.25" points="305.696,1662.911 302.736,1644.666 290.587,1646.516 293.571,1664.905 " />
<polygon stroke="black" stroke-width="1" fill="rgb(204, 41, 128)" fill-opacity="0.25" points="309.442,1685.392 305.696,1662.911 293.571,1664.905 297.323,1687.427 " />
<polygon stroke="black" stroke-width="1" fill="rgb(204, 41, 128)" fill-opacity="0.25" points="313.736,1710.783 309.442,1685.392 297.323,1687.427 301.622,1712.841 " />
<polygon stroke="black" stroke-width="1" fill="rgb(204, 41, 128)" fill-opacity="0.25" points="318.353,1737.828 313.736,1710.783 301.622,1712.841 306.241,1739.902 " />
<polygon stroke="black" stroke-width="1" fill="rgb(204, 41, 128)" fill-opacity="0.25" points="323.069,1765.281 318.353,1737.828 306.241,1739.902 310.959,1767.366 " />
<polygon stroke="black" stroke-width="1" fill="rgb(204, 41, 128)" fill-opacity="0.25" points="327.657,1791.902 323.069,1765.281 310.959,1767.366 315.548,1793.991 " />
<polygon stroke="black" stroke-width="1" fill="rgb(204, 41, 128)" fill-opacity="0.25" points="331.895,1816.441 327.657,1791.902 315.548,1793.991 319.786,1818.531 " />
<polygon stroke="black" stroke-width="1" fill="rgb(204, 41, 128)" fill-opacity="0.25" points="649.448,1814.605 660.027,1835.128 670.946,1829.491 669.002,1825.720 668.276,1825.316 659.750,1817.081 654.957,1811.772 " />
<polygon stroke="black" stroke-width="1" fill="rgb(204, 41, 128)" fill-opacity="0.25" points="335.558,1837.656 331.895,1816.441 319.786,1818.531 323.448,1839.744 " />
<polygon stroke="black" stroke-width="1" fill="rgb(204, 41, 128)" fill-opacity="0.25" points="660.027,1835.128 671.989,1858.263 682.902,1852.616 670.946,1829.491 " />
<polygon stroke="black" stroke-width="1" fill="rgb(204, 41, 128)" fill-opacity="0.25" points="338.423,1854.316 335.558,1837.656 323.448,1839.744 326.311,1856.386 " />
<polygon stroke="black" stroke-width="1" fill="rgb(204, 41, 128)" fill-opacity="0.25" points="671.989,1858.263 684.660,1882.731 695.571,1877.078 682.902,1852.616 " />
<polygon stroke="black" stroke-width="1" fill="rgb(204, 41, 128)" fill-opacity="0.25" points="340.270,1865.194 338.423,1854.316 326.311,1856.386 328.148,1867.211 " />
<polygon stroke="black" stroke-width="1" fill="rgb(204, 41, 128)" fill-opacity="0.25" points="342.139,1876.656 340.270,1865.194 328.148,1867.211 330.009,1878.620 " />
<polygon stroke="black" stroke-width="1" fill="rgb(204, 41, 128)" fill-opacity="0.25" points="684.660,1882.731 697.367,1907.248 708.277,1901.595 695.571,1877.078 " />
<polygon stroke="black" stroke-width="1" fill="rgb(204, 41, 128)" fill-opacity="0.25" points="345.086,1894.991 342.139,1876.656 330.009,1878.620 332.953,1896.938 " />
<polygon stroke="black" stroke-width="1" fill="rgb(204, 41, 128)" fill-opacity="0.25" points="348.908,1918.864 345.086,1894.991 332.953,1896.938 336.774,1920.806 " />
<polygon stroke="black" stroke-width="1" fill="rgb(204, 41, 128)" fill-opacity="0.25" points="697.367,1907.248 709.433,1930.536 720.344,1924.886 708.277,1901.595 " />
<polygon stroke="black" stroke-width="1" fill="rgb(204, 41, 128)" fill-opacity="0.25" points="353.402,1946.930 348.908,1918.864 336.774,1920.806 341.270,1948.875 " />
<polygon stroke="black" stroke-width="1" fill="rgb(204, 41, 128)" fill-opacity="0.25" points="709.433,1930.536 720.183,1951.306 731.099,1945.664 720.344,1924.886 " />
<polygon stroke="black" stroke-width="1" fill="rgb(204, 41, 128)" fill-opacity="0.25" points="720.183,1951.306 728.938,1968.267 739.865,1962.647 731.099,1945.664 " />
<polygon stroke="black" stroke-width="1" fill="rgb(204, 41, 128)" fill-opacity="0.25" points="358.366,1977.834 353.402,1946.930 341.270,1948.875 346.234,1979.788 " />
<polygon stroke="black" stroke-width="1" fill="rgb(204, 41, 128)" fill-opacity="0.25" points="728.938,1968.267 734.896,1979.894 745.966,1974.552 739.865,1962.647 " />
<polygon stroke="black" stroke-width="1" fill="rgb(204, 41, 128)" fill-opacity="0.25" points="363.593,2010.227 358.366,1977.834 346.234,1979.788 351.463,2012.191 " />
<polygon stroke="black" stroke-width="1" fill="rgb(204, 41, 128)" fill-opacity="0.25" points="368.880,2042.747 363.593,2010.227 351.463,2012.191 356.752,2044.728 " />
<polygon stroke="black" stroke-width="1" fill="rgb(204, 41, 128)" fill-opacity="0.25" points="374.020,2074.041 368.880,2042.747 356.752,2044.728 361.897,2076.047 " />
<polygon stroke="black" stroke-width="1" fill="rgb(204, 41, 128)" fill-opacity="0.25" points="763.242,2053.684 767.222,2068.831 779.111,2065.725 775.053,2050.281 " />
<polygon stroke="black" stroke-width="1" fill="rgb(204, 41, 128)" fill-opacity="0.25" points="767.222,2068.831 773.043,2091.248 784.939,2088.170 779.111,2065.725 " />
<polygon stroke="black" stroke-width="1" fill="rgb(204, 41, 128)" fill-opacity="0.25" points="378.809,2102.744 374.020,2074.041 361.897,2076.047 366.692,2104.791 " />
<polygon stroke="black" stroke-width="1" fill="rgb(204, 41, 128)" fill-opacity="0.25" points="773.043,2091.248 780.223,2119.080 792.123,2116.017 784.939,2088.170 " />
<polygon stroke="black" stroke-width="1" fill="rgb(204, 41, 128)" fill-opacity="0.25" points="383.040,2127.494 378.809,2102.744 366.692,2104.791 370.935,2129.608 " />
<polygon stroke="black" stroke-width="1" fill="rgb(204, 41, 128)" fill-opacity="0.25" points="780.223,2119.080 788.344,2150.720 800.248,2147.672 792.123,2116.017 " />
<polygon stroke="black" stroke-width="1" fill="rgb(204, 41, 128)" fill-opacity="0.25" points="386.498,2146.884 383.040,2127.494 370.935,2129.608 374.419,2149.142 " />
<polygon stroke="black" stroke-width="1" fill="rgb(204, 41, 128)" fill-opacity="0.25" points="788.344,2150.720 796.991,2184.572 808.899,2181.537 800.248,2147.672 " />
<polygon stroke="black" stroke-width="1" fill="rgb(204, 41, 128)" fill-opacity="0.25" points="388.953,2159.438 386.498,2146.884 374.419,2149.142 376.941,2162.041 " />
<polygon stroke="black" stroke-width="1" fill="rgb(204, 41, 128)" fill-opacity="0.25" points="392.147,2172.849 388.953,2159.438 376.941,2162.041 380.215,2175.787 " />
<polygon stroke="black" stroke-width="1" fill="rgb(204, 41, 128)" fill-opacity="0.25" points="397.677,2194.575 392.147,2172.849 380.215,2175.787 385.779,2197.644 " />
<polygon stroke="black" stroke-width="1" fill="rgb(204, 41, 128)" fill-opacity="0.25" points="796.991,2184.572 805.752,2219.037 817.664,2216.019 808.899,2181.537 " />
<polygon stroke="black" stroke-width="1" fill="rgb(204, 41, 128)" fill-opacity="0.25" points="405.051,2222.792 397.677,2194.575 385.779,2197.644 393.167,2225.919 " />
<polygon stroke="black" stroke-width="1" fill="rgb(204, 41, 128)" fill-opacity="0.25" points="805.752,2219.037 814.210,2252.517 826.127,2249.519 817.664,2216.019 " />
<polygon stroke="black" stroke-width="1" fill="rgb(204, 41, 128)" fill-opacity="0.25" points="413.787,2255.756 405.051,2222.792 393.167,2225.919 401.912,2258.917 " />
<polygon stroke="black" stroke-width="1" fill="rgb(204, 41, 128)" fill-opacity="0.25" points="816.153,2260.273 796.052,2252.370 803.980,2268.691 833.873,2280.444 " />
<polygon stroke="black" stroke-width="1" fill="rgb(204, 41, 128)" fill-opacity="0.25" points="814.210,2252.517 816.153,2260.273 833.873,2280.444 826.127,2249.519 " />
<polygon stroke="black" stroke-width="1" fill="rgb(204, 41, 128)" fill-opacity="0.25" points="423.417,2291.764 413.787,2255.756 401.912,2258.917 411.549,2294.948 " />
<polygon stroke="black" stroke-width="1" fill="rgb(204, 41, 128)" fill-opacity="0.25" points="796.052,2252.370 782.576,2297.244 794.345,2300.778 803.980,2268.691 " />
<polygon stroke="black" stroke-width="1" fill="rgb(204, 41, 128)" fill-opacity="0.25" points="433.473,2329.116 423.417,2291.764 411.549,2294.948 421.610,2332.319 " />
<polygon stroke="black" stroke-width="1" fill="rgb(204, 41, 128)" fill-opacity="0.25" points="443.488,2366.119 433.473,2329.116 421.610,2332.319 431.629,2369.336 " />
<polygon stroke="black" stroke-width="1" fill="rgb(204, 41, 128)" fill-opacity="0.25" points="452.995,2401.078 443.488,2366.119 431.629,2369.336 441.140,2404.309 " />
<polygon stroke="black" stroke-width="1" fill="rgb(204, 41, 128)" fill-opacity="0.25" points="461.527,2432.297 452.995,2401.078 441.140,2404.309 449.676,2435.545 " />
<polygon stroke="black" stroke-width="1" fill="rgb(204, 41, 128)" fill-opacity="0.25" points="468.615,2458.080 461.527,2432.297 449.676,2435.545 456.770,2461.352 " />
<polygon stroke="black" stroke-width="1" fill="rgb(204, 41, 128)" fill-opacity="0.25" points="473.772,2476.656 468.615,2458.080 456.770,2461.352 461.957,2480.034 " />
<polygon stroke="black" stroke-width="1" fill="rgb(204, 41, 128)" fill-opacity="0.25" points="481.987,2503.847 478.675,2493.314 466.919,2496.892 470.270,2507.552 " />
<polygon stroke="black" stroke-width="1" fill="rgb(204, 41, 128)" fill-opacity="0.25" points="486.285,2517.367 481.987,2503.847 470.270,2507.552 474.580,2521.105 " />
<polygon stroke="black" stroke-width="1" fill="rgb(204, 41, 128)" fill-opacity="0.25" points="491.302,2533.008 486.285,2517.367 474.580,2521.105 479.605,2536.773 " />
<polygon stroke="black" stroke-width="1" fill="rgb(204, 41, 128)" fill-opacity="0.25" points="715.127,2521.838 699.603,2572.988 711.362,2576.556 726.890,2525.389 " />
<polygon stroke="black" stroke-width="1" fill="rgb(204, 41, 128)" fill-opacity="0.25" points="496.790,2549.989 491.302,2533.008 479.605,2536.773 485.102,2553.783 " />
<polygon stroke="black" stroke-width="1" fill="rgb(204, 41, 128)" fill-opacity="0.25" points="502.508,2567.528 496.790,2549.989 485.102,2553.783 490.830,2571.355 " />
<polygon stroke="black" stroke-width="1" fill="rgb(204, 41, 128)" fill-opacity="0.25" points="508.210,2584.847 502.508,2567.528 490.830,2571.355 496.546,2588.713 " />
<polygon stroke="black" stroke-width="1" fill="rgb(204, 41, 128)" fill-opacity="0.25" points="513.652,2601.156 508.210,2584.847 496.546,2588.713 502.007,2605.080 " />
<polygon stroke="black" stroke-width="1" fill="rgb(204, 41, 128)" fill-opacity="0.25" points="518.572,2615.622 513.652,2601.156 502.007,2605.080 506.972,2619.678 " />
<polygon stroke="black" stroke-width="1" fill="rgb(204, 41, 128)" fill-opacity="0.25" points="653.031,2726.448 642.522,2760.234 654.255,2763.884 664.777,2730.058 " />
<polygon stroke="black" stroke-width="1" fill="rgb(204, 41, 128)" fill-opacity="0.25" points="618.102,2862.108 619.669,2851.930 607.527,2850.034 605.945,2860.311 " />
<polygon stroke="black" stroke-width="1" fill="rgb(204, 41, 128)" fill-opacity="0.25" points="616.615,2872.589 618.102,2862.108 605.945,2860.311 604.432,2870.983 " />
<polygon stroke="black" stroke-width="1" fill="rgb(204, 41, 128)" fill-opacity="0.25" points="611.021,2861.514 607.120,2872.662 605.677,2913.991 622.691,2865.369 " />
<polygon stroke="black" stroke-width="1" fill="rgb(204, 41, 128)" fill-opacity="0.25" points="615.384,2882.684 616.615,2872.589 604.432,2870.983 603.146,2881.525 " />
<polygon stroke="black" stroke-width="1" fill="rgb(204, 41, 128)" fill-opacity="0.25" points="607.120,2872.662 614.289,2898.891 601.889,2900.131 605.677,2913.991 " />
<polygon stroke="black" stroke-width="1" fill="rgb(204, 41, 128)" fill-opacity="0.25" points="1512.816,202.036 1530.166,201.441 1530.012,189.150 1512.166,189.762 " />
<polygon stroke="black" stroke-width="1" fill="rgb(204, 41, 128)" fill-opacity="0.25" points="1541.661,201.545 1551.770,202.673 1553.235,190.473 1542.401,189.264 " />
<polygon stroke="black" stroke-width="1" fill="rgb(204, 41, 128)" fill-opacity="0.25" points="1503.074,202.734 1512.816,202.036 1512.166,189.762 1501.876,190.500 " />
<polygon stroke="black" stroke-width="1" fill="rgb(204, 41, 128)" fill-opacity="0.25" points="1551.770,202.673 1563.740,204.212 1565.851,192.095 1553.235,190.473 " />
<polygon stroke="black" stroke-width="1" fill="rgb(204, 41, 128)" fill-opacity="0.25" points="1490.062,204.352 1503.074,202.734 1501.876,190.500 1488.347,192.183 " />
<polygon stroke="black" stroke-width="1" fill="rgb(204, 41, 128)" fill-opacity="0.25" points="1472.421,207.131 1490.062,204.352 1488.347,192.183 1469.604,195.136 " />
<polygon stroke="black" stroke-width="1" fill="rgb(204, 41, 128)" fill-opacity="0.25" points="1563.740,204.212 1577.295,207.203 1580.072,195.233 1565.851,192.095 " />
<polygon stroke="black" stroke-width="1" fill="rgb(204, 41, 128)" fill-opacity="0.25" points="1461.810,210.472 1472.421,207.131 1469.604,195.136 1457.996,198.791 " />
<polygon stroke="black" stroke-width="1" fill="rgb(204, 41, 128)" fill-opacity="0.25" points="1577.295,207.203 1590.847,210.501 1594.448,198.731 1580.072,195.233 " />
<polygon stroke="black" stroke-width="1" fill="rgb(204, 41, 128)" fill-opacity="0.25" points="1590.847,210.501 1607.448,216.659 1612.297,205.352 1594.448,198.731 " />
<polygon stroke="black" stroke-width="1" fill="rgb(204, 41, 128)" fill-opacity="0.25" points="1451.742,213.876 1461.810,210.472 1457.996,198.791 1447.327,202.398 " />
<polygon stroke="black" stroke-width="1" fill="rgb(204, 41, 128)" fill-opacity="0.25" points="1440.394,218.786 1451.742,213.876 1447.327,202.398 1434.562,207.920 " />
<polygon stroke="black" stroke-width="1" fill="rgb(204, 41, 128)" fill-opacity="0.25" points="1532.813,192.889 1515.916,192.130 1516.069,204.438 1516.530,204.459 1521.207,204.181 1530.009,205.064 1531.726,205.141 " />
<polygon stroke="black" stroke-width="1" fill="rgb(204, 41, 128)" fill-opacity="0.25" points="1515.916,192.130 1500.262,193.225 1501.345,205.467 1503.351,205.328 1509.014,204.903 1511.598,204.750 1516.069,204.438 " />
<polygon stroke="black" stroke-width="1" fill="rgb(204, 41, 128)" fill-opacity="0.25" points="1546.752,194.742 1532.813,192.889 1531.726,205.141 1534.628,205.525 1535.018,205.566 1545.148,206.909 " />
<polygon stroke="black" stroke-width="1" fill="rgb(204, 41, 128)" fill-opacity="0.25" points="1500.262,193.225 1480.832,195.305 1482.598,207.473 1497.687,205.755 1500.955,205.509 1501.345,205.467 " />
<polygon stroke="black" stroke-width="1" fill="rgb(204, 41, 128)" fill-opacity="0.25" points="1432.703,223.789 1440.394,218.786 1434.562,207.920 1425.904,213.553 " />
<polygon stroke="black" stroke-width="1" fill="rgb(204, 41, 128)" fill-opacity="0.25" points="1556.770,196.053 1546.752,194.742 1545.148,206.909 1555.375,208.264 " />
<polygon stroke="black" stroke-width="1" fill="rgb(204, 41, 128)" fill-opacity="0.25" points="1607.448,216.659 1622.472,224.009 1629.673,213.853 1612.297,205.352 " />
<polygon stroke="black" stroke-width="1" fill="rgb(204, 41, 128)" fill-opacity="0.25" points="1567.038,197.058 1556.770,196.053 1555.375,208.264 1560.588,208.773 1565.801,209.283 " />
<polygon stroke="black" stroke-width="1" fill="rgb(204, 41, 128)" fill-opacity="0.25" points="1480.832,195.305 1461.911,198.778 1465.238,210.661 1470.263,209.738 1470.827,209.561 1482.598,207.473 " />
<polygon stroke="black" stroke-width="1" fill="rgb(204, 41, 128)" fill-opacity="0.25" points="1580.413,198.456 1567.038,197.058 1565.801,209.283 1578.294,210.589 " />
<polygon stroke="black" stroke-width="1" fill="rgb(204, 41, 128)" fill-opacity="0.25" points="1596.066,202.312 1580.413,198.456 1578.294,210.589 1578.556,210.655 1580.760,210.891 1588.251,213.044 1592.492,214.087 " />
<polygon stroke="black" stroke-width="1" fill="rgb(204, 41, 128)" fill-opacity="0.25" points="1461.911,198.778 1450.002,203.320 1455.469,214.386 1465.238,210.661 " />
<polygon stroke="black" stroke-width="1" fill="rgb(204, 41, 128)" fill-opacity="0.25" points="1615.698,209.430 1596.066,202.312 1592.492,214.087 1594.796,214.922 1595.577,215.147 1607.770,219.562 1608.114,219.751 1610.120,220.478 " />
<polygon stroke="black" stroke-width="1" fill="rgb(204, 41, 128)" fill-opacity="0.25" points="1420.441,232.105 1432.703,223.789 1425.904,213.553 1413.309,222.094 " />
<polygon stroke="black" stroke-width="1" fill="rgb(204, 41, 128)" fill-opacity="0.25" points="1622.472,224.009 1628.157,229.617 1636.981,221.061 1629.673,213.853 " />
<polygon stroke="black" stroke-width="1" fill="rgb(204, 41, 128)" fill-opacity="0.25" points="1450.002,203.320 1434.573,212.853 1441.228,223.186 1443.727,221.641 1445.816,220.284 1455.469,214.386 " />
<polygon stroke="black" stroke-width="1" fill="rgb(204, 41, 128)" fill-opacity="0.25" points="1629.163,218.392 1615.698,209.430 1610.120,220.478 1613.266,222.572 1617.321,224.792 1620.904,227.656 1621.647,228.150 " />
<polygon stroke="black" stroke-width="1" fill="rgb(204, 41, 128)" fill-opacity="0.25" points="1628.157,229.617 1635.892,237.959 1645.009,229.719 1636.981,221.061 " />
<polygon stroke="black" stroke-width="1" fill="rgb(204, 41, 128)" fill-opacity="0.25" points="1412.805,237.814 1420.441,232.105 1413.309,222.094 1405.087,228.242 " />
<polygon stroke="black" stroke-width="1" fill="rgb(204, 41, 128)" fill-opacity="0.25" points="1434.573,212.853 1425.252,219.106 1432.248,229.209 1432.627,228.955 1434.266,227.791 1437.379,225.769 1441.228,223.186 " />
<polygon stroke="black" stroke-width="1" fill="rgb(204, 41, 128)" fill-opacity="0.25" points="1644.680,232.148 1629.163,218.392 1621.647,228.150 1622.783,229.158 1628.479,233.709 1630.377,235.891 1634.995,239.984 " />
<polygon stroke="black" stroke-width="1" fill="rgb(204, 41, 128)" fill-opacity="0.25" points="1403.679,245.741 1412.805,237.814 1405.087,228.242 1395.518,236.553 " />
<polygon stroke="black" stroke-width="1" fill="rgb(204, 41, 128)" fill-opacity="0.25" points="1425.252,219.106 1414.710,226.639 1421.949,236.569 1424.403,234.816 1424.634,234.631 1428.860,231.630 1432.248,229.209 " />
<polygon stroke="black" stroke-width="1" fill="rgb(204, 41, 128)" fill-opacity="0.25" points="1635.892,237.959 1643.126,246.169 1653.189,239.001 1645.009,229.719 " />
<polygon stroke="black" stroke-width="1" fill="rgb(204, 41, 128)" fill-opacity="0.25" points="1650.994,243.305 1644.680,232.148 1634.995,239.984 1636.952,243.444 1637.230,243.762 1638.674,246.484 1640.135,249.067 " />
<polygon stroke="black" stroke-width="1" fill="rgb(204, 41, 128)" fill-opacity="0.25" points="1414.710,226.639 1405.316,233.623 1413.430,242.903 1421.949,236.569 " />
<polygon stroke="black" stroke-width="1" fill="rgb(204, 41, 128)" fill-opacity="0.25" points="1395.194,253.448 1403.679,245.741 1395.518,236.553 1386.145,245.067 " />
<polygon stroke="black" stroke-width="1" fill="rgb(204, 41, 128)" fill-opacity="0.25" points="1405.316,233.623 1395.951,243.223 1404.904,251.642 1405.795,250.728 1409.658,246.542 1410.649,245.753 1413.430,242.903 " />
<polygon stroke="black" stroke-width="1" fill="rgb(204, 41, 128)" fill-opacity="0.25" points="1643.126,246.169 1648.164,255.062 1659.114,249.462 1653.189,239.001 " />
<polygon stroke="black" stroke-width="1" fill="rgb(204, 41, 128)" fill-opacity="0.25" points="1389.637,260.595 1395.194,253.448 1386.145,245.067 1379.565,253.530 " />
<polygon stroke="black" stroke-width="1" fill="rgb(204, 41, 128)" fill-opacity="0.25" points="1648.164,255.062 1654.811,269.548 1666.576,265.725 1659.114,249.462 " />
<polygon stroke="black" stroke-width="1" fill="rgb(204, 41, 128)" fill-opacity="0.25" points="1660.057,261.566 1650.994,243.305 1640.135,249.067 1641.487,251.791 1644.650,257.756 1645.598,260.072 1648.334,265.584 " />
<polygon stroke="black" stroke-width="1" fill="rgb(204, 41, 128)" fill-opacity="0.25" points="1395.951,243.223 1381.514,259.155 1391.126,266.847 1395.511,262.008 1399.195,257.883 1402.237,254.584 1404.904,251.642 " />
<polygon stroke="black" stroke-width="1" fill="rgb(204, 41, 128)" fill-opacity="0.25" points="1378.843,277.714 1389.637,260.595 1379.565,253.530 1368.340,271.333 " />
<polygon stroke="black" stroke-width="1" fill="rgb(204, 41, 128)" fill-opacity="0.25" points="1654.811,269.548 1656.698,278.939 1668.773,276.658 1666.576,265.725 " />
<polygon stroke="black" stroke-width="1" fill="rgb(204, 41, 128)" fill-opacity="0.25" points="1663.289,277.520 1660.057,261.566 1648.334,265.584 1648.805,267.909 1649.096,268.622 1650.706,277.297 1651.199,279.730 " />
<polygon stroke="black" stroke-width="1" fill="rgb(204, 41, 128)" fill-opacity="0.25" points="1381.514,259.155 1368.734,277.297 1379.239,283.722 1379.672,283.108 1381.875,279.450 1387.599,270.867 1390.887,267.184 1391.126,266.847 " />
<polygon stroke="black" stroke-width="1" fill="rgb(204, 41, 128)" fill-opacity="0.25" points="1656.698,278.939 1658.475,288.980 1670.616,287.075 1668.773,276.658 " />
<polygon stroke="black" stroke-width="1" fill="rgb(204, 41, 128)" fill-opacity="0.25" points="1373.559,286.747 1378.843,277.714 1368.340,271.333 1362.442,281.416 " />
<polygon stroke="black" stroke-width="1" fill="rgb(204, 41, 128)" fill-opacity="0.25" points="1665.539,291.330 1663.289,277.520 1651.199,279.730 1651.495,281.547 1651.733,282.827 1652.480,287.594 1653.319,292.739 " />
<polygon stroke="black" stroke-width="1" fill="rgb(204, 41, 128)" fill-opacity="0.25" points="1366.723,304.636 1373.559,286.747 1362.442,281.416 1355.203,300.356 " />
<polygon stroke="black" stroke-width="1" fill="rgb(204, 41, 128)" fill-opacity="0.25" points="1368.734,277.297 1361.638,290.792 1372.851,295.870 1373.404,294.819 1375.140,290.631 1378.809,284.542 1379.239,283.722 " />
<polygon stroke="black" stroke-width="1" fill="rgb(204, 41, 128)" fill-opacity="0.25" points="1666.437,304.489 1665.539,291.330 1653.319,292.739 1653.343,293.092 1653.481,293.975 1653.827,300.194 1654.167,305.166 " />
<polygon stroke="black" stroke-width="1" fill="rgb(204, 41, 128)" fill-opacity="0.25" points="1658.475,288.980 1659.821,298.803 1672.105,297.936 1670.616,287.075 " />
<polygon stroke="black" stroke-width="1" fill="rgb(204, 41, 128)" fill-opacity="0.25" points="1361.638,290.792 1357.400,301.833 1369.064,305.736 1370.309,302.494 1371.018,300.573 1371.390,299.675 1372.851,295.870 " />
<polygon stroke="black" stroke-width="1" fill="rgb(204, 41, 128)" fill-opacity="0.25" points="1666.963,316.967 1666.437,304.489 1654.167,305.166 1654.362,309.795 1654.449,311.372 1654.441,311.675 1654.667,317.050 " />
<polygon stroke="black" stroke-width="1" fill="rgb(204, 41, 128)" fill-opacity="0.25" points="1362.784,315.552 1366.723,304.636 1355.203,300.356 1351.205,311.439 " />
<polygon stroke="black" stroke-width="1" fill="rgb(204, 41, 128)" fill-opacity="0.25" points="1659.821,298.803 1659.880,310.828 1672.168,310.867 1672.105,297.936 " />
<polygon stroke="black" stroke-width="1" fill="rgb(204, 41, 128)" fill-opacity="0.25" points="1357.400,301.833 1352.805,317.859 1364.829,320.508 1365.474,318.256 1366.612,312.500 1368.902,306.300 1369.064,305.736 " />
<polygon stroke="black" stroke-width="1" fill="rgb(204, 41, 128)" fill-opacity="0.25" points="1357.981,329.295 1362.784,315.552 1351.205,311.439 1346.197,325.769 " />
<polygon stroke="black" stroke-width="1" fill="rgb(204, 41, 128)" fill-opacity="0.25" points="1659.880,310.828 1659.745,322.747 1672.031,323.003 1672.168,310.867 " />
<polygon stroke="black" stroke-width="1" fill="rgb(204, 41, 128)" fill-opacity="0.25" points="1659.745,322.747 1659.451,332.458 1671.711,333.559 1672.031,323.003 " />
<polygon stroke="black" stroke-width="1" fill="rgb(204, 41, 128)" fill-opacity="0.25" points="1666.639,328.251 1666.963,316.967 1654.667,317.050 1654.372,327.345 " />
<polygon stroke="black" stroke-width="1" fill="rgb(204, 41, 128)" fill-opacity="0.25" points="1352.805,317.859 1350.938,329.863 1363.085,331.714 1363.500,329.047 1364.032,325.558 1364.084,325.294 1364.829,320.508 " />
<polygon stroke="black" stroke-width="1" fill="rgb(204, 41, 128)" fill-opacity="0.25" points="1663.936,350.908 1666.639,328.251 1654.372,327.345 1653.884,331.433 1653.853,332.541 1652.331,345.501 1652.107,346.328 1651.872,348.302 " />
<polygon stroke="black" stroke-width="1" fill="rgb(204, 41, 128)" fill-opacity="0.25" points="1354.861,341.755 1357.981,329.295 1346.197,325.769 1342.841,339.170 " />
<polygon stroke="black" stroke-width="1" fill="rgb(204, 41, 128)" fill-opacity="0.25" points="1350.938,329.863 1347.707,351.498 1359.864,353.286 1362.041,338.622 1362.680,334.430 1363.085,331.714 " />
<polygon stroke="black" stroke-width="1" fill="rgb(204, 41, 128)" fill-opacity="0.25" points="1659.451,332.458 1656.604,351.444 1668.723,353.486 1671.711,333.559 " />
<polygon stroke="black" stroke-width="1" fill="rgb(204, 41, 128)" fill-opacity="0.25" points="1352.555,354.567 1354.861,341.755 1342.841,339.170 1340.445,352.477 " />
<polygon stroke="black" stroke-width="1" fill="rgb(204, 41, 128)" fill-opacity="0.25" points="1660.220,362.634 1663.936,350.908 1651.872,348.302 1649.809,354.811 1649.506,355.928 1648.898,357.686 1648.568,358.727 " />
<polygon stroke="black" stroke-width="1" fill="rgb(204, 41, 128)" fill-opacity="0.25" points="1347.707,351.498 1345.741,365.077 1357.916,366.734 1358.890,360.009 1359.864,353.286 " />
<polygon stroke="black" stroke-width="1" fill="rgb(204, 41, 128)" fill-opacity="0.25" points="1349.379,373.770 1352.555,354.567 1340.445,352.477 1337.182,372.209 " />
<polygon stroke="black" stroke-width="1" fill="rgb(204, 41, 128)" fill-opacity="0.25" points="1656.604,351.444 1654.762,361.277 1666.605,364.791 1668.723,353.486 " />
<polygon stroke="black" stroke-width="1" fill="rgb(204, 41, 128)" fill-opacity="0.25" points="1345.741,365.077 1343.936,379.219 1356.180,380.339 1356.229,379.959 1356.330,378.466 1357.916,366.734 " />
<polygon stroke="black" stroke-width="1" fill="rgb(204, 41, 128)" fill-opacity="0.25" points="1655.855,374.966 1660.220,362.634 1648.568,358.727 1647.187,362.628 1645.553,367.348 1645.404,367.664 1644.613,369.900 " />
<polygon stroke="black" stroke-width="1" fill="rgb(204, 41, 128)" fill-opacity="0.25" points="1654.762,361.277 1651.109,370.116 1662.319,375.166 1666.605,364.791 " />
<polygon stroke="black" stroke-width="1" fill="rgb(204, 41, 128)" fill-opacity="0.25" points="1649.587,386.267 1655.855,374.966 1644.613,369.900 1642.898,372.994 1640.781,377.494 1639.517,379.087 1639.340,379.408 " />
<polygon stroke="black" stroke-width="1" fill="rgb(204, 41, 128)" fill-opacity="0.25" points="1348.491,383.523 1349.379,373.770 1337.182,372.209 1336.238,382.575 " />
<polygon stroke="black" stroke-width="1" fill="rgb(204, 41, 128)" fill-opacity="0.25" points="1651.109,370.116 1643.730,385.209 1654.399,391.363 1662.319,375.166 " />
<polygon stroke="black" stroke-width="1" fill="rgb(204, 41, 128)" fill-opacity="0.25" points="1637.592,401.303 1649.587,386.267 1639.340,379.408 1628.084,393.517 " />
<polygon stroke="black" stroke-width="1" fill="rgb(204, 41, 128)" fill-opacity="0.25" points="1343.936,379.219 1343.324,390.212 1355.495,390.833 1356.073,382.270 1356.180,380.339 " />
<polygon stroke="black" stroke-width="1" fill="rgb(204, 41, 128)" fill-opacity="0.25" points="1347.021,406.539 1348.491,383.523 1336.238,382.575 1334.759,405.733 " />
<polygon stroke="black" stroke-width="1" fill="rgb(204, 41, 128)" fill-opacity="0.25" points="1643.730,385.209 1637.159,394.992 1646.930,402.484 1654.399,391.363 " />
<polygon stroke="black" stroke-width="1" fill="rgb(204, 41, 128)" fill-opacity="0.25" points="1630.045,410.281 1637.592,401.303 1628.084,393.517 1620.718,402.281 " />
<polygon stroke="black" stroke-width="1" fill="rgb(204, 41, 128)" fill-opacity="0.25" points="1619.184,422.691 1630.045,410.281 1620.718,402.281 1619.132,404.092 1618.772,404.519 1610.020,414.505 " />
<polygon stroke="black" stroke-width="1" fill="rgb(204, 41, 128)" fill-opacity="0.25" points="1637.159,394.992 1630.378,402.773 1639.598,410.897 1646.930,402.484 " />
<polygon stroke="black" stroke-width="1" fill="rgb(204, 41, 128)" fill-opacity="0.25" points="1630.378,402.773 1623.084,410.966 1632.237,419.164 1639.598,410.897 " />
<polygon stroke="black" stroke-width="1" fill="rgb(204, 41, 128)" fill-opacity="0.25" points="1346.170,419.144 1347.021,406.539 1334.759,405.733 1333.918,418.184 " />
<polygon stroke="black" stroke-width="1" fill="rgb(204, 41, 128)" fill-opacity="0.25" points="1611.281,431.361 1619.184,422.691 1610.020,414.505 1606.209,418.686 1602.397,422.867 " />
<polygon stroke="black" stroke-width="1" fill="rgb(204, 41, 128)" fill-opacity="0.25" points="1342.345,411.420 1327.170,467.291 1338.988,470.662 1354.539,413.405 1354.541,413.334 " />
<polygon stroke="black" stroke-width="1" fill="rgb(204, 41, 128)" fill-opacity="0.25" points="1345.088,431.281 1346.170,419.144 1333.918,418.184 1332.857,430.100 " />
<polygon stroke="black" stroke-width="1" fill="rgb(204, 41, 128)" fill-opacity="0.25" points="1597.114,445.489 1611.281,431.361 1602.397,422.867 1594.252,431.005 1589.729,435.500 1588.448,436.777 " />
<polygon stroke="black" stroke-width="1" fill="rgb(204, 41, 128)" fill-opacity="0.25" points="1623.084,410.966 1614.850,420.105 1623.952,428.359 1632.237,419.164 " />
<polygon stroke="black" stroke-width="1" fill="rgb(204, 41, 128)" fill-opacity="0.25" points="1614.850,420.105 1606.357,429.406 1615.416,437.709 1623.952,428.359 " />
<polygon stroke="black" stroke-width="1" fill="rgb(204, 41, 128)" fill-opacity="0.25" points="1343.027,451.089 1345.088,431.281 1332.857,430.100 1331.039,447.561 " />
<polygon stroke="black" stroke-width="1" fill="rgb(204, 41, 128)" fill-opacity="0.25" points="1583.759,458.739 1597.114,445.489 1588.448,436.777 1585.588,439.616 1581.953,443.227 1578.471,446.675 1575.113,450.008 " />
<polygon stroke="black" stroke-width="1" fill="rgb(204, 41, 128)" fill-opacity="0.25" points="1606.357,429.406 1599.319,437.056 1608.270,445.475 1615.416,437.709 " />
<polygon stroke="black" stroke-width="1" fill="rgb(204, 41, 128)" fill-opacity="0.25" points="1599.319,437.056 1591.406,445.286 1600.238,453.830 1608.270,445.475 " />
<polygon stroke="black" stroke-width="1" fill="rgb(204, 41, 128)" fill-opacity="0.25" points="1570.412,471.936 1583.759,458.739 1575.113,450.008 1572.023,453.062 1568.273,456.777 1564.905,460.100 1561.783,463.188 " />
<polygon stroke="black" stroke-width="1" fill="rgb(204, 41, 128)" fill-opacity="0.25" points="1332.534,471.812 1343.027,451.089 1331.039,447.561 1322.992,463.455 " />
<polygon stroke="black" stroke-width="1" fill="rgb(204, 41, 128)" fill-opacity="0.25" points="1591.406,445.286 1583.068,453.850 1591.836,462.459 1600.238,453.830 " />
<polygon stroke="black" stroke-width="1" fill="rgb(204, 41, 128)" fill-opacity="0.25" points="1583.068,453.850 1574.184,462.820 1582.595,471.791 1591.836,462.459 " />
<polygon stroke="black" stroke-width="1" fill="rgb(204, 41, 128)" fill-opacity="0.25" points="1317.097,482.392 1332.534,471.812 1322.992,463.455 1310.675,471.897 " />
<polygon stroke="black" stroke-width="1" fill="rgb(204, 41, 128)" fill-opacity="0.25" points="1559.635,482.537 1570.412,471.936 1561.783,463.188 1559.726,465.211 1555.987,468.900 1554.966,469.892 1551.235,473.564 " />
<polygon stroke="black" stroke-width="1" fill="rgb(204, 41, 128)" fill-opacity="0.25" points="1303.306,489.880 1317.097,482.392 1310.675,471.897 1297.715,478.933 " />
<polygon stroke="black" stroke-width="1" fill="rgb(204, 41, 128)" fill-opacity="0.25" points="1574.184,462.820 1562.146,473.300 1570.084,482.681 1582.595,471.791 " />
<polygon stroke="black" stroke-width="1" fill="rgb(204, 41, 128)" fill-opacity="0.25" points="1549.951,491.161 1559.635,482.537 1551.235,473.564 1550.739,474.006 1546.245,478.378 1542.706,481.156 1542.157,481.647 " />
<polygon stroke="black" stroke-width="1" fill="rgb(204, 41, 128)" fill-opacity="0.25" points="1284.369,498.959 1303.306,489.880 1297.715,478.933 1279.073,487.870 " />
<polygon stroke="black" stroke-width="1" fill="rgb(204, 41, 128)" fill-opacity="0.25" points="1533.467,503.569 1549.951,491.161 1542.157,481.647 1540.407,482.964 1537.826,484.992 1533.834,487.912 1526.899,493.133 " />
<polygon stroke="black" stroke-width="1" fill="rgb(204, 41, 128)" fill-opacity="0.25" points="1562.146,473.300 1546.265,486.361 1553.279,496.501 1570.084,482.681 " />
<polygon stroke="black" stroke-width="1" fill="rgb(204, 41, 128)" fill-opacity="0.25" points="1522.828,509.083 1533.467,503.569 1526.899,493.133 1526.209,493.491 1524.476,494.759 1519.177,497.134 1517.637,497.933 " />
<polygon stroke="black" stroke-width="1" fill="rgb(204, 41, 128)" fill-opacity="0.25" points="1508.395,515.073 1522.828,509.083 1517.637,497.933 1514.421,499.269 1512.488,500.134 1507.940,501.958 1504.973,503.189 " />
<polygon stroke="black" stroke-width="1" fill="rgb(204, 41, 128)" fill-opacity="0.25" points="1546.265,486.361 1530.981,495.152 1534.277,507.431 1553.279,496.501 " />
<polygon stroke="black" stroke-width="1" fill="rgb(204, 41, 128)" fill-opacity="0.25" points="1489.758,518.222 1508.395,515.073 1504.973,503.189 1504.791,503.220 1502.947,503.959 1492.576,505.666 1488.666,505.942 1488.313,506.003 " />
<polygon stroke="black" stroke-width="1" fill="rgb(204, 41, 128)" fill-opacity="0.25" points="1838.932,494.417 1489.758,518.222 1488.313,506.003 1476.443,506.812 1466.835,507.467 1464.912,507.598 " />
<polygon stroke="black" stroke-width="1" fill="rgb(204, 41, 128)" fill-opacity="0.25" points="1202.979,536.688 1215.027,531.466 1210.027,520.241 1198.909,525.059 " />
<polygon stroke="black" stroke-width="1" fill="rgb(204, 41, 128)" fill-opacity="0.25" points="1426.298,536.184 1441.584,536.422 1441.813,524.136 1426.116,523.892 " />
<polygon stroke="black" stroke-width="1" fill="rgb(204, 41, 128)" fill-opacity="0.25" points="1917.805,514.011 1426.298,536.184 1426.116,523.892 1415.309,524.380 " />
<polygon stroke="black" stroke-width="1" fill="rgb(204, 41, 128)" fill-opacity="0.25" points="1441.584,536.422 1457.903,536.777 1458.088,524.489 1441.813,524.136 " />
<polygon stroke="black" stroke-width="1" fill="rgb(204, 41, 128)" fill-opacity="0.25" points="1457.903,536.777 -1841.914,509.372 -1943.716,508.527 -2162.349,506.711 -2447.838,504.341 -4037.056,491.142 -2444.274,500.816 -2162.126,502.528 -1946.586,503.837 -1844.882,504.455 1470.129,524.589 1458.088,524.489 " />
<polygon stroke="black" stroke-width="1" fill="rgb(204, 41, 128)" fill-opacity="0.25" points="1178.036,543.441 1202.979,536.688 1198.909,525.059 1174.945,531.547 " />
<polygon stroke="black" stroke-width="1" fill="rgb(204, 41, 128)" fill-opacity="0.25" points="1160.069,547.916 1178.036,543.441 1174.945,531.547 1157.106,535.991 " />
<polygon stroke="black" stroke-width="1" fill="rgb(204, 41, 128)" fill-opacity="0.25" points="1142.596,552.245 1160.069,547.916 1157.106,535.991 1139.608,540.327 " />
<polygon stroke="black" stroke-width="1" fill="rgb(204, 41, 128)" fill-opacity="0.25" points="1129.227,555.636 1142.596,552.245 1139.608,540.327 1125.635,543.870 " />
<polygon stroke="black" stroke-width="1" fill="rgb(204, 41, 128)" fill-opacity="0.25" points="1118.488,559.486 1129.227,555.636 1125.635,543.870 1113.560,548.198 " />
<polygon stroke="black" stroke-width="1" fill="rgb(204, 41, 128)" fill-opacity="0.25" points="1107.045,565.430 1118.488,559.486 1113.560,548.198 1101.299,554.567 " />
<polygon stroke="black" stroke-width="1" fill="rgb(204, 41, 128)" fill-opacity="0.25" points="1097.871,570.372 1107.045,565.430 1101.299,554.567 1091.939,559.609 " />
<polygon stroke="black" stroke-width="1" fill="rgb(204, 41, 128)" fill-opacity="0.25" points="1081.918,579.366 1097.871,570.372 1091.939,559.609 1075.264,569.011 " />
<polygon stroke="black" stroke-width="1" fill="rgb(204, 41, 128)" fill-opacity="0.25" points="1068.283,589.286 1081.918,579.366 1075.264,569.011 1060.996,579.391 " />
<polygon stroke="black" stroke-width="1" fill="rgb(204, 41, 128)" fill-opacity="0.25" points="1051.002,602.167 1068.283,589.286 1060.996,579.391 1043.641,592.328 " />
<polygon stroke="black" stroke-width="1" fill="rgb(204, 41, 128)" fill-opacity="0.25" points="997.717,643.028 1013.702,630.406 1006.162,620.703 989.688,633.711 " />
<polygon stroke="black" stroke-width="1" fill="rgb(204, 41, 128)" fill-opacity="0.25" points="744.030,2425.594 734.394,2457.681 746.162,2461.216 755.799,2429.128 " />
<polygon stroke="black" stroke-width="1" fill="rgb(204, 41, 128)" fill-opacity="0.25" points="990.525,649.783 997.717,643.028 989.688,633.711 982.021,640.912 " />
<polygon stroke="black" stroke-width="1" fill="rgb(204, 41, 128)" fill-opacity="0.25" points="763.302,2361.419 753.666,2393.506 765.435,2397.041 775.071,2364.953 " />
<polygon stroke="black" stroke-width="1" fill="rgb(204, 41, 128)" fill-opacity="0.25" points="978.335,661.709 990.525,649.783 982.021,640.912 969.696,652.970 " />
<polygon stroke="black" stroke-width="1" fill="rgb(204, 41, 128)" fill-opacity="0.25" points="724.757,2489.769 715.127,2521.838 726.890,2525.389 736.526,2493.303 " />
<polygon stroke="black" stroke-width="1" fill="rgb(204, 41, 128)" fill-opacity="0.25" points="963.854,676.177 978.335,661.709 969.696,652.970 955.123,667.530 " />
<polygon stroke="black" stroke-width="1" fill="rgb(204, 41, 128)" fill-opacity="0.25" points="782.576,2297.244 772.939,2329.331 784.708,2332.866 794.345,2300.778 " />
<polygon stroke="black" stroke-width="1" fill="rgb(204, 41, 128)" fill-opacity="0.25" points="949.560,690.761 963.854,676.177 955.123,667.530 940.713,682.233 " />
<polygon stroke="black" stroke-width="1" fill="rgb(204, 41, 128)" fill-opacity="0.25" points="938.161,702.789 949.560,690.761 940.713,682.233 928.877,694.722 " />
<polygon stroke="black" stroke-width="1" fill="rgb(204, 41, 128)" fill-opacity="0.25" points="930.045,712.988 938.161,702.789 928.877,694.722 919.774,706.161 " />
<polygon stroke="black" stroke-width="1" fill="rgb(204, 41, 128)" fill-opacity="0.25" points="923.797,724.395 930.045,712.988 919.774,706.161 912.945,718.628 " />
<polygon stroke="black" stroke-width="1" fill="rgb(204, 41, 128)" fill-opacity="0.25" points="1296.766,568.895 1286.613,602.825 1298.388,606.338 1308.538,572.419 " />
<polygon stroke="black" stroke-width="1" fill="rgb(204, 41, 128)" fill-opacity="0.25" points="915.061,741.341 923.797,724.395 912.945,718.628 904.123,735.742 " />
<polygon stroke="black" stroke-width="1" fill="rgb(204, 41, 128)" fill-opacity="0.25" points="1240.893,756.550 1358.945,359.628 1383.531,276.967 1430.260,119.852 1388.393,269.978 1355.752,387.019 1237.432,811.291 1252.671,760.053 " />
<polygon stroke="black" stroke-width="1" fill="rgb(204, 41, 128)" fill-opacity="0.25" points="896.679,777.289 905.577,760.005 894.637,754.409 885.822,771.531 " />
<polygon stroke="black" stroke-width="1" fill="rgb(204, 41, 128)" fill-opacity="0.25" points="889.294,790.814 896.679,777.289 885.822,771.531 879.009,784.009 " />
<polygon stroke="black" stroke-width="1" fill="rgb(204, 41, 128)" fill-opacity="0.25" points="879.012,803.811 889.294,790.814 879.009,784.009 869.691,795.787 " />
<polygon stroke="black" stroke-width="1" fill="rgb(204, 41, 128)" fill-opacity="0.25" points="734.394,2457.681 724.757,2489.769 736.526,2493.303 746.162,2461.216 " />
<polygon stroke="black" stroke-width="1" fill="rgb(204, 41, 128)" fill-opacity="0.25" points="866.168,817.539 879.012,803.811 869.691,795.787 857.246,809.089 " />
<polygon stroke="black" stroke-width="1" fill="rgb(204, 41, 128)" fill-opacity="0.25" points="822.246,862.389 835.341,849.239 826.609,840.592 813.595,853.662 " />
<polygon stroke="black" stroke-width="1" fill="rgb(204, 41, 128)" fill-opacity="0.25" points="668.547,2675.322 653.031,2726.448 664.777,2730.058 680.305,2678.891 " />
<polygon stroke="black" stroke-width="1" fill="rgb(204, 41, 128)" fill-opacity="0.25" points="1106.025,838.209 1093.938,853.366 1103.786,860.725 1115.389,846.177 " />
<polygon stroke="black" stroke-width="1" fill="rgb(204, 41, 128)" fill-opacity="0.25" points="813.874,870.581 822.246,862.389 813.595,853.662 805.565,861.520 " />
<polygon stroke="black" stroke-width="1" fill="rgb(204, 41, 128)" fill-opacity="0.25" points="798.434,883.844 813.874,870.581 805.565,861.520 790.471,874.484 " />
<polygon stroke="black" stroke-width="1" fill="rgb(204, 41, 128)" fill-opacity="0.25" points="991.707,1009.881 983.618,1025.578 994.746,1030.808 1002.436,1015.887 " />
<polygon stroke="black" stroke-width="1" fill="rgb(204, 41, 128)" fill-opacity="0.25" points="621.478,2827.891 611.021,2861.514 622.691,2865.369 633.212,2831.541 " />
<polygon stroke="black" stroke-width="1" fill="rgb(204, 41, 128)" fill-opacity="0.25" points="923.971,1177.220 917.099,1195.064 928.565,1199.483 935.443,1181.625 " />
<polygon stroke="black" stroke-width="1" fill="rgb(204, 41, 128)" fill-opacity="0.25" points="917.099,1195.064 911.016,1210.836 922.488,1215.241 928.565,1199.483 " />
<polygon stroke="black" stroke-width="1" fill="rgb(204, 41, 128)" fill-opacity="0.25" points="1274.906,716.180 1295.654,636.539 1271.543,680.347 1263.015,713.083 " />
<polygon stroke="black" stroke-width="1" fill="rgb(204, 41, 128)" fill-opacity="0.25" points="425.237,1260.080 434.372,1247.534 424.709,1239.931 414.952,1253.330 " />
<polygon stroke="black" stroke-width="1" fill="rgb(204, 41, 128)" fill-opacity="0.25" points="871.905,1311.948 863.372,1332.625 874.548,1337.756 883.296,1316.558 " />
<polygon stroke="black" stroke-width="1" fill="rgb(204, 41, 128)" fill-opacity="0.25" points="863.372,1332.625 857.401,1344.392 868.180,1350.305 874.548,1337.756 " />
<polygon stroke="black" stroke-width="1" fill="rgb(204, 41, 128)" fill-opacity="0.25" points="352.935,1398.030 357.974,1385.800 346.763,1380.755 341.421,1393.719 " />
<polygon stroke="black" stroke-width="1" fill="rgb(204, 41, 128)" fill-opacity="0.25" points="1257.852,781.652 1266.379,748.916 1254.488,745.819 1245.960,778.555 " />
<polygon stroke="black" stroke-width="1" fill="rgb(204, 41, 128)" fill-opacity="0.25" points="774.173,1477.420 763.980,1492.673 773.928,1499.903 784.440,1484.172 " />
<polygon stroke="black" stroke-width="1" fill="rgb(204, 41, 128)" fill-opacity="0.25" points="642.522,2760.234 632.000,2794.062 643.734,2797.713 654.255,2763.884 " />
<polygon stroke="black" stroke-width="1" fill="rgb(204, 41, 128)" fill-opacity="0.25" points="763.980,1492.673 753.621,1505.811 763.198,1513.511 773.928,1499.903 " />
<polygon stroke="black" stroke-width="1" fill="rgb(204, 41, 128)" fill-opacity="0.25" points="309.616,1540.263 315.457,1519.653 303.649,1516.250 297.640,1537.456 " />
<polygon stroke="black" stroke-width="1" fill="rgb(204, 41, 128)" fill-opacity="0.25" points="699.603,2572.988 684.075,2624.155 695.834,2627.724 711.362,2576.556 " />
<polygon stroke="black" stroke-width="1" fill="rgb(204, 41, 128)" fill-opacity="0.25" points="307.173,1553.373 309.616,1540.263 297.640,1537.456 295.018,1551.522 " />
<polygon stroke="black" stroke-width="1" fill="rgb(204, 41, 128)" fill-opacity="0.25" points="304.393,1576.805 307.173,1553.373 295.018,1551.522 292.180,1575.447 " />
<polygon stroke="black" stroke-width="1" fill="rgb(204, 41, 128)" fill-opacity="0.25" points="772.939,2329.331 763.302,2361.419 775.071,2364.953 784.708,2332.866 " />
<polygon stroke="black" stroke-width="1" fill="rgb(204, 41, 128)" fill-opacity="0.25" points="302.498,1595.069 304.393,1576.805 292.180,1575.447 290.267,1593.878 " />
<polygon stroke="black" stroke-width="1" fill="rgb(204, 41, 128)" fill-opacity="0.25" points="1271.371,654.072 1256.132,705.311 1267.910,708.814 1283.149,657.575 " />
<polygon stroke="black" stroke-width="1" fill="rgb(204, 41, 128)" fill-opacity="0.25" points="300.982,1611.745 302.498,1595.069 290.267,1593.878 288.725,1610.850 " />
<polygon stroke="black" stroke-width="1" fill="rgb(204, 41, 128)" fill-opacity="0.25" points="1317.066,501.059 1306.916,534.977 1318.688,538.500 1328.838,504.581 " />
<polygon stroke="black" stroke-width="1" fill="rgb(204, 41, 128)" fill-opacity="0.25" points="675.400,1599.908 666.599,1611.027 676.881,1617.836 684.958,1607.631 " />
<polygon stroke="black" stroke-width="1" fill="rgb(204, 41, 128)" fill-opacity="0.25" points="300.163,1626.586 300.982,1611.745 288.725,1610.850 287.827,1627.119 " />
<polygon stroke="black" stroke-width="1" fill="rgb(204, 41, 128)" fill-opacity="0.25" points="1266.379,748.916 1274.906,716.180 1263.015,713.083 1254.488,745.819 " />
<polygon stroke="black" stroke-width="1" fill="rgb(204, 41, 128)" fill-opacity="0.25" points="632.000,2794.062 621.478,2827.891 633.212,2831.541 643.734,2797.713 " />
<polygon stroke="black" stroke-width="1" fill="rgb(204, 41, 128)" fill-opacity="0.25" points="666.599,1611.027 656.158,1630.123 667.016,1635.878 676.881,1617.836 " />
<polygon stroke="black" stroke-width="1" fill="rgb(204, 41, 128)" fill-opacity="0.25" points="302.736,1644.666 300.163,1626.586 287.827,1627.119 290.587,1646.516 " />
<polygon stroke="black" stroke-width="1" fill="rgb(204, 41, 128)" fill-opacity="0.25" points="656.158,1630.123 649.081,1643.905 660.052,1649.441 667.016,1635.878 " />
<polygon stroke="black" stroke-width="1" fill="rgb(204, 41, 128)" fill-opacity="0.25" points="649.081,1643.905 639.120,1663.995 650.398,1668.911 660.052,1649.441 " />
<polygon stroke="black" stroke-width="1" fill="rgb(204, 41, 128)" fill-opacity="0.25" points="639.120,1663.995 631.978,1682.873 643.877,1686.148 650.398,1668.911 " />
<polygon stroke="black" stroke-width="1" fill="rgb(204, 41, 128)" fill-opacity="0.25" points="684.075,2624.155 668.547,2675.322 680.305,2678.891 695.834,2627.724 " />
<polygon stroke="black" stroke-width="1" fill="rgb(204, 41, 128)" fill-opacity="0.25" points="631.978,1682.873 627.991,1705.342 640.114,1707.355 643.877,1686.148 " />
<polygon stroke="black" stroke-width="1" fill="rgb(204, 41, 128)" fill-opacity="0.25" points="753.666,2393.506 744.030,2425.594 755.799,2429.128 765.435,2397.041 " />
<polygon stroke="black" stroke-width="1" fill="rgb(204, 41, 128)" fill-opacity="0.25" points="627.991,1705.342 626.174,1717.086 638.341,1718.817 640.114,1707.355 " />
<polygon stroke="black" stroke-width="1" fill="rgb(204, 41, 128)" fill-opacity="0.25" points="626.174,1717.086 624.312,1731.409 633.915,1731.503 634.432,1727.913 638.204,1719.875 638.341,1718.817 " />
<polygon stroke="black" stroke-width="1" fill="rgb(204, 41, 128)" fill-opacity="0.25" points="1256.132,705.311 1240.893,756.550 1252.671,760.053 1267.910,708.814 " />
<polygon stroke="black" stroke-width="1" fill="rgb(204, 41, 128)" fill-opacity="0.25" points="1530.981,495.152 1523.559,495.169 1512.488,500.134 1502.947,503.959 1499.587,504.512 1499.594,507.516 1534.277,507.431 " />
<polygon stroke="black" stroke-width="1" fill="rgb(204, 41, 128)" fill-opacity="0.25" points="1306.916,534.977 1296.766,568.895 1308.538,572.419 1318.688,538.500 " />
<polygon stroke="black" stroke-width="1" fill="rgb(204, 41, 128)" fill-opacity="0.25" points="734.896,1979.894 740.257,1991.723 751.569,1986.914 745.966,1974.552 " />
<polygon stroke="black" stroke-width="1" fill="rgb(204, 41, 128)" fill-opacity="0.25" points="740.257,1991.723 744.605,2002.653 756.041,1998.159 751.569,1986.914 " />
<polygon stroke="black" stroke-width="1" fill="rgb(204, 41, 128)" fill-opacity="0.25" points="744.605,2002.653 752.467,2022.911 763.944,2018.519 756.041,1998.159 " />
<polygon stroke="black" stroke-width="1" fill="rgb(204, 41, 128)" fill-opacity="0.25" points="752.467,2022.911 759.097,2040.480 770.716,2036.467 763.944,2018.519 " />
<polygon stroke="black" stroke-width="1" fill="rgb(204, 41, 128)" fill-opacity="0.25" points="759.097,2040.480 763.242,2053.684 775.053,2050.281 770.716,2036.467 " />
<polygon stroke="black" stroke-width="1" fill="rgb(204, 41, 128)" fill-opacity="0.25" points="478.675,2493.314 473.772,2476.656 461.957,2480.034 466.919,2496.892 " />
<polygon stroke="black" stroke-width="1" fill="rgb(204, 41, 128)" fill-opacity="0.25" points="525.551,2635.047 518.572,2615.622 506.972,2619.678 514.439,2640.461 " />
<polygon stroke="black" stroke-width="1" fill="rgb(204, 41, 128)" fill-opacity="0.25" points="532.078,2645.412 525.551,2635.047 514.439,2640.461 522.155,2652.716 " />
<polygon stroke="black" stroke-width="1" fill="rgb(204, 41, 128)" fill-opacity="0.25" points="541.671,2656.645 532.078,2645.412 522.155,2652.716 532.406,2664.717 " />
<polygon stroke="black" stroke-width="1" fill="rgb(204, 41, 128)" fill-opacity="0.25" points="554.045,2670.567 541.671,2656.645 532.406,2664.717 544.889,2678.763 " />
<polygon stroke="black" stroke-width="1" fill="rgb(204, 41, 128)" fill-opacity="0.25" points="566.420,2684.297 554.045,2670.567 544.889,2678.763 557.286,2692.516 " />
<polygon stroke="black" stroke-width="1" fill="rgb(204, 41, 128)" fill-opacity="0.25" points="576.609,2695.641 566.420,2684.297 557.286,2692.516 567.277,2703.639 " />
<polygon stroke="black" stroke-width="1" fill="rgb(204, 41, 128)" fill-opacity="0.25" points="583.899,2704.558 576.609,2695.641 567.277,2703.639 573.983,2711.842 " />
<polygon stroke="black" stroke-width="1" fill="rgb(204, 41, 128)" fill-opacity="0.25" points="595.334,2721.944 583.899,2704.558 573.983,2711.842 584.992,2728.581 " />
<polygon stroke="black" stroke-width="1" fill="rgb(204, 41, 128)" fill-opacity="0.25" points="605.676,2738.463 595.334,2721.944 584.992,2728.581 594.813,2744.269 " />
<polygon stroke="black" stroke-width="1" fill="rgb(204, 41, 128)" fill-opacity="0.25" points="616.122,2761.706 605.676,2738.463 594.813,2744.269 604.236,2765.236 " />
<polygon stroke="black" stroke-width="1" fill="rgb(204, 41, 128)" fill-opacity="0.25" points="618.177,2774.866 616.122,2761.706 604.236,2765.236 606.016,2776.630 " />
<polygon stroke="black" stroke-width="1" fill="rgb(204, 41, 128)" fill-opacity="0.25" points="620.063,2788.961 618.177,2774.866 606.016,2776.630 607.870,2790.489 " />
<polygon stroke="black" stroke-width="1" fill="rgb(204, 41, 128)" fill-opacity="0.25" points="622.527,2810.039 620.063,2788.961 607.870,2790.489 610.240,2810.761 " />
<polygon stroke="black" stroke-width="1" fill="rgb(204, 41, 128)" fill-opacity="0.25" points="622.548,2833.725 622.527,2810.039 610.240,2810.761 610.259,2832.764 " />
<polygon stroke="black" stroke-width="1" fill="rgb(204, 41, 128)" fill-opacity="0.25" points="619.669,2851.930 622.548,2833.725 610.259,2832.764 607.527,2850.034 " />
<polygon stroke="black" stroke-width="1" fill="rgb(204, 41, 128)" fill-opacity="0.25" points="614.289,2898.891 615.384,2882.684 603.146,2881.525 601.889,2900.131 " />
<polygon stroke="black" stroke-width="1" fill="rgb(204, 41, 128)" fill-opacity="0.25" points="1499.587,504.512 1502.947,503.959 1512.488,500.134 1523.556,495.170 1838.932,494.417 1464.912,507.598 1499.594,507.516 " />
<polygon stroke="black" stroke-width="1" fill="rgb(204, 41, 128)" fill-opacity="0.25" points="1355.752,387.019 1355.463,391.317 1354.688,405.631 1354.599,410.280 1257.852,781.652 1245.960,778.555 1237.432,811.291 " />
<polygon stroke="black" stroke-width="1" fill="rgb(204, 41, 128)" fill-opacity="0.25" points="-1844.882,504.455 -1847.844,499.550 1917.805,514.011 1415.309,524.380 1470.129,524.589 " />

</svg>
