<?xml version="1.0" standalone="no"?>
<!DOCTYPE svg PUBLIC "-//W3C//DTD SVG 1.1//EN" 
  "http://www.w3.org/Graphics/SVG/1.1/DTD/svg11.dtd">
<svg width="2048" height="2048" viewBox="0 0 2048 2048"
     xmlns="http://www.w3.org/2000/svg" version="1.1">
<desc>OPCDcourseconversion_postCUT.blend, (Blender 3.3.1)</desc>
<polygon stroke="black" stroke-width="1" fill="rgb(14, 200, 30)" fill-opacity="0.25" points="1552.898,217.267 1541.403,217.162 1524.054,217.758 1514.312,218.456 1501.299,220.073 1483.659,222.853 1473.048,226.194 1462.980,229.598 1451.631,234.508 1443.941,239.511 1431.678,247.827 1424.043,253.536 1414.916,261.462 1406.431,269.170 1400.874,276.317 1390.080,293.436 1384.797,302.469 1377.960,320.358 1374.022,331.273 1369.219,345.017 1366.098,357.477 1363.792,370.289 1360.616,389.492 1359.728,399.245 1358.259,422.261 1357.407,434.866 1356.326,447.003 1354.264,466.811 1343.772,487.534 1328.334,498.114 1314.544,505.602 1295.606,514.681 1283.913,520.244 1271.477,526.133 1258.895,532.059 1246.777,537.730 1235.723,542.859 1226.265,547.188 1214.216,552.409 1189.273,559.162 1171.306,563.637 1153.834,567.967 1140.464,571.358 1129.725,575.208 1118.283,581.152 1109.109,586.094 1093.156,595.088 1079.520,605.008 1062.240,617.889 1052.575,625.147 1042.826,632.505 1033.447,639.623 1024.940,646.128 1008.955,658.750 1001.763,665.505 989.573,677.431 975.091,691.898 960.798,706.483 949.398,718.511 941.283,728.709 935.034,740.117 926.298,757.062 921.571,766.366 916.814,775.727 907.916,793.011 900.531,806.536 890.249,819.533 877.405,833.261 869.904,841.084 862.066,849.173 854.187,857.236 846.578,864.961 833.484,878.111 825.112,886.303 809.672,899.566 795.655,911.380 778.643,925.677 759.534,941.725 739.255,958.772 718.739,976.059 698.920,992.828 680.733,1008.319 665.124,1021.758 653.084,1032.338 645.671,1039.175 637.716,1047.434 624.238,1061.992 606.495,1081.459 585.633,1104.553 562.765,1130.031 538.997,1156.650 515.433,1183.178 493.177,1208.375 473.338,1231.000 457.034,1249.802 445.609,1263.256 436.474,1275.802 431.592,1284.092 425.226,1295.325 417.941,1308.480 410.077,1322.917 401.963,1338.017 393.926,1353.164 386.289,1367.738 379.384,1381.116 373.540,1392.670 369.212,1401.522 364.173,1413.752 360.806,1423.723 356.524,1436.988 351.654,1452.473 346.435,1469.377 341.097,1486.906 335.873,1504.277 330.993,1520.705 326.695,1535.375 320.854,1555.984 318.410,1569.095 315.630,1592.527 313.735,1610.791 312.220,1627.467 311.401,1642.308 313.973,1660.388 316.934,1678.633 320.680,1701.114 324.973,1726.505 329.591,1753.550 334.306,1781.003 338.895,1807.623 343.132,1832.163 346.795,1853.378 349.661,1870.038 351.507,1880.916 353.377,1892.378 356.323,1910.713 360.145,1934.586 364.640,1962.652 369.604,1993.556 374.830,2025.948 380.117,2058.469 385.257,2089.763 390.046,2118.466 394.277,2143.216 397.736,2162.606 400.191,2175.159 403.384,2188.570 408.915,2210.297 416.288,2238.514 425.024,2271.478 434.655,2307.486 444.711,2344.838 454.726,2381.841 464.233,2416.800 472.764,2448.019 479.852,2473.802 485.009,2492.378 489.912,2509.036 493.224,2519.569 497.523,2533.089 502.539,2548.730 508.027,2565.711 513.745,2583.250 519.448,2600.569 524.890,2616.878 529.809,2631.344 536.788,2650.769 543.316,2661.134 552.909,2672.367 565.283,2686.289 577.658,2700.019 587.847,2711.363 595.137,2720.280 606.572,2737.666 616.913,2754.184 627.359,2777.428 629.415,2790.588 631.301,2804.683 633.765,2825.761 633.786,2849.447 630.906,2867.652 629.339,2877.830 627.852,2888.311 626.621,2898.406 625.527,2914.613 618.357,2888.384 622.259,2877.236 632.716,2843.613 643.237,2809.784 653.759,2775.956 664.269,2742.170 679.784,2691.044 695.312,2639.877 710.841,2588.709 726.364,2537.559 735.995,2505.491 745.631,2473.403 755.268,2441.316 764.904,2409.228 774.540,2377.141 784.177,2345.053 793.813,2312.966 807.289,2268.092 827.391,2275.995 825.448,2268.239 816.990,2234.759 808.229,2200.294 799.581,2166.442 791.460,2134.802 784.280,2106.970 778.459,2084.553 774.480,2069.406 770.334,2056.202 763.705,2038.633 755.842,2018.375 751.495,2007.445 746.134,1995.616 740.175,1983.989 731.420,1967.028 720.670,1946.258 708.605,1922.970 695.898,1898.453 683.227,1873.984 671.265,1850.850 660.685,1830.327 652.088,1813.550 642.748,1793.881 640.294,1781.970 637.817,1767.739 635.549,1747.131 637.412,1732.808 639.229,1721.064 643.216,1698.595 650.357,1679.717 660.319,1659.627 667.395,1645.845 677.837,1626.748 686.637,1615.630 694.272,1606.377 703.489,1595.300 713.841,1582.906 724.826,1569.772 735.934,1556.478 746.659,1543.605 756.486,1531.744 764.859,1521.533 775.217,1508.395 785.410,1493.142 793.593,1480.498 803.179,1465.533 813.664,1449.037 824.571,1431.763 835.427,1414.452 845.757,1397.848 855.081,1382.711 862.918,1369.795 868.638,1360.114 874.609,1348.347 883.142,1327.670 888.571,1313.983 894.449,1298.950 900.529,1283.255 906.579,1267.533 912.368,1252.422 917.668,1238.556 922.254,1226.558 928.337,1210.786 935.209,1192.942 940.690,1178.622 947.145,1161.772 954.276,1143.219 961.783,1123.778 969.374,1104.264 976.753,1085.489 983.628,1068.258 989.716,1053.359 994.855,1041.300 1002.945,1025.603 1009.939,1014.059 1018.812,999.852 1029.238,983.455 1040.738,965.595 1052.826,947.014 1065.011,928.458 1076.807,910.672 1087.727,894.397 1097.288,880.369 1105.175,869.088 1117.262,853.931 1128.212,841.859 1142.350,826.623 1159.009,808.880 1177.336,789.488 1196.469,769.322 1215.541,749.261 1233.681,730.184 1250.018,712.973 1263.671,698.523 1306.891,652.261 1286.144,731.902 1277.616,764.637 1269.089,797.373 1365.599,438.431 1365.926,421.353 1366.700,407.039 1367.567,394.188 1369.154,382.456 1371.102,369.008 1373.278,354.344 1375.270,341.280 1377.849,328.222 1382.255,316.295 1386.377,306.353 1393.113,295.172 1398.837,286.589 1410.432,273.605 1420.895,262.266 1435.871,250.353 1445.504,243.512 1457.053,236.006 1466.707,230.108 1482.065,225.283 1493.835,223.195 1508.924,221.477 1520.252,220.625 1532.445,219.903 1546.255,221.287 1566.613,223.986 1577.038,225.005 1591.998,226.613 1606.814,230.869 1619.008,235.284 1628.559,240.516 1639.716,249.431 1648.468,259.484 1655.887,273.478 1660.334,284.344 1662.970,298.548 1664.719,309.697 1665.687,327.094 1671.117,326.550 1671.059,314.525 1669.713,304.702 1667.936,294.661 1666.048,285.270 1659.402,270.784 1654.363,261.891 1647.130,253.681 1639.395,245.339 1633.709,239.731 1618.685,232.381 1602.084,226.223 1588.533,222.925 1574.977,219.934 1563.008,218.395 " />
<polygon stroke="black" stroke-width="1" fill="rgb(14, 200, 30)" fill-opacity="0.25" points="1437.536,551.906 1929.043,529.733 -1836.606,515.272 -1830.676,525.094 1469.141,552.498 1452.822,552.144 " />
<polygon stroke="black" stroke-width="1" fill="rgb(14, 200, 30)" fill-opacity="0.25" points="652.088,1813.550 660.685,1830.327 666.195,1827.494 660.814,1821.534 654.854,1812.184 " />
<polygon stroke="black" stroke-width="1" fill="rgb(14, 200, 30)" fill-opacity="0.25" points="1354.562,405.934 1353.583,427.142 1365.779,429.056 1365.926,421.353 1366.700,407.039 1366.733,406.555 " />
<polygon stroke="black" stroke-width="1" fill="rgb(14, 200, 30)" fill-opacity="0.25" points="-4025.818,506.864 -2427.984,513.000 -2433.037,516.537 " />
<polygon stroke="black" stroke-width="1" fill="rgb(14, 200, 30)" fill-opacity="0.25" points="1441.498,135.573 1403.523,281.341 1399.630,285.700 " />
<polygon stroke="black" stroke-width="1" fill="rgb(14, 200, 30)" fill-opacity="0.25" points="635.549,1747.131 637.817,1767.739 642.974,1767.008 643.416,1759.266 645.152,1747.225 " />
<polygon stroke="black" stroke-width="1" fill="rgb(14, 200, 30)" fill-opacity="0.25" points="637.817,1767.739 640.294,1781.970 643.809,1781.302 642.548,1774.466 642.974,1767.008 " />
<polygon stroke="black" stroke-width="1" fill="rgb(14, 200, 30)" fill-opacity="0.25" points="640.294,1781.970 642.748,1793.881 645.932,1792.816 643.809,1781.302 " />
<polygon stroke="black" stroke-width="1" fill="rgb(14, 200, 30)" fill-opacity="0.25" points="642.748,1793.881 652.088,1813.550 654.854,1812.184 651.826,1807.433 646.161,1794.056 645.932,1792.816 " />
<polygon stroke="black" stroke-width="1" fill="rgb(14, 200, 30)" fill-opacity="0.25" points="1399.630,285.700 1403.523,281.341 1365.837,426.001 1365.926,421.353 1366.700,407.039 1366.990,402.741 " />
<polygon stroke="black" stroke-width="1" fill="rgb(14, 200, 30)" fill-opacity="0.25" points="1671.117,326.550 1665.687,327.094 1665.091,348.262 1663.569,361.223 1660.744,371.650 1656.791,383.070 1652.018,393.216 1639.322,409.239 1630.009,420.241 1621.257,430.227 1613.634,438.589 1605.490,446.727 1593.191,458.948 1579.511,472.498 1567.225,484.622 1557.482,494.100 1549.063,500.714 1535.714,510.480 1523.726,515.856 1514.184,519.681 1503.813,521.387 1480.314,523.058 1469.012,523.720 1454.434,523.292 1441.966,520.839 1432.044,517.848 1419.657,511.653 1406.858,504.876 1396.877,497.327 1382.351,483.614 1377.573,474.412 1373.100,465.059 1369.831,455.294 1365.599,438.431 1269.089,797.373 1365.837,426.001 1365.926,421.353 1366.699,407.041 1367.566,394.188 1369.154,382.456 1371.101,369.009 1373.277,354.344 1375.270,341.280 1377.849,328.222 1382.255,316.295 1386.377,306.353 1393.112,295.172 1398.837,286.589 1403.523,281.341 1441.498,135.573 1394.769,292.689 1370.183,375.350 1252.130,772.272 1267.370,721.033 1282.609,669.794 1297.851,618.547 1308.004,584.617 1318.154,550.698 1328.304,516.781 1338.408,483.012 1353.583,427.142 1354.562,405.934 1355.173,394.941 1356.978,380.798 1358.945,367.220 1362.175,345.584 1364.043,333.581 1368.637,317.555 1372.876,306.514 1379.972,293.019 1392.752,274.876 1407.188,258.945 1416.553,249.345 1425.948,242.361 1436.489,234.828 1445.811,228.575 1461.239,219.042 1473.148,214.500 1492.070,211.027 1511.500,208.947 1527.153,207.852 1544.051,208.611 1557.990,210.464 1568.008,211.775 1578.275,212.780 1591.650,214.178 1607.304,218.034 1626.936,225.152 1640.400,234.114 1655.918,247.870 1662.231,259.027 1671.295,277.287 1674.527,293.242 1676.777,307.052 1677.674,320.211 1678.200,332.689 1677.877,343.973 1675.173,366.630 1671.458,378.356 1667.093,390.688 1660.824,401.989 1648.830,417.025 1641.283,426.003 1630.422,438.412 1622.519,447.083 1608.352,461.211 1594.997,474.461 1581.649,487.658 1570.873,498.259 1561.188,506.883 1544.705,519.291 1534.066,524.805 1519.633,530.795 1500.995,533.944 1850.170,510.139 1534.794,510.892 1535.714,510.480 1535.713,510.481 1523.726,515.856 1514.184,519.681 1503.813,521.387 1480.313,523.059 1469.012,523.720 1454.434,523.292 1441.966,520.841 1432.044,517.848 1419.657,511.653 1406.858,504.876 1396.877,497.327 1382.351,483.614 1377.573,474.412 1373.100,465.059 1369.831,455.294 1365.599,438.431 1365.926,421.353 1366.700,407.039 1367.567,394.188 1369.154,382.456 1371.102,369.008 1373.278,354.344 1375.270,341.280 1377.849,328.222 1382.255,316.295 1386.377,306.353 1393.113,295.172 1398.837,286.591 1410.432,273.605 1420.895,262.264 1435.872,250.353 1445.504,243.512 1457.053,236.006 1466.707,230.108 1482.065,225.283 1493.835,223.195 1508.924,221.478 1520.252,220.625 1532.445,219.903 1546.255,221.287 1566.613,223.986 1577.038,225.005 1591.998,226.613 1606.814,230.869 1619.008,235.284 1628.559,240.512 1639.716,249.431 1648.468,259.484 1655.887,273.478 1660.334,284.344 1662.970,298.548 1664.719,309.697 1665.687,327.094 1665.091,348.262 1663.569,361.223 1660.744,371.650 1656.790,383.072 1652.018,393.216 1639.322,409.239 1630.009,420.241 1621.257,430.227 1613.634,438.589 1605.490,446.727 1593.191,458.948 1579.511,472.498 1567.225,484.622 1557.482,494.100 1549.063,500.714 1535.714,510.480 1534.796,510.891 1542.219,510.873 1557.502,502.083 1573.384,489.022 1585.422,478.542 1594.305,469.572 1602.644,461.008 1610.556,452.778 1617.594,445.128 1626.088,435.827 1634.321,426.688 1641.616,418.495 1648.397,410.714 1654.967,400.931 1662.347,385.837 1665.999,376.998 1667.841,367.166 1670.688,348.180 1670.983,338.469 " />
<polygon stroke="black" stroke-width="1" fill="rgb(14, 200, 30)" fill-opacity="0.25" points="1403.523,281.341 1398.837,286.589 1393.112,295.172 1386.377,306.353 1382.255,316.295 1377.849,328.222 1375.270,341.280 1373.277,354.344 1371.101,369.009 1369.154,382.456 1367.566,394.188 1366.699,407.041 1365.926,421.353 1365.837,426.001 " />
<polygon stroke="black" stroke-width="1" fill="rgb(14, 200, 30)" fill-opacity="0.25" points="-2433.037,516.537 -2427.984,513.000 -2150.920,514.064 -2150.888,518.250 " />
<polygon stroke="black" stroke-width="1" fill="rgb(14, 200, 30)" fill-opacity="0.25" points="-2150.888,518.250 -2150.920,514.064 -1938.278,514.880 -1935.348,519.559 " />
<polygon stroke="black" stroke-width="1" fill="rgb(14, 200, 30)" fill-opacity="0.25" points="-2151.111,522.433 -2150.881,519.291 -2150.920,514.064 -2427.984,513.000 -2433.046,516.544 -2436.600,520.062 " />
<polygon stroke="black" stroke-width="1" fill="rgb(14, 200, 30)" fill-opacity="0.25" points="-2436.600,520.062 -2433.046,516.544 -2427.984,513.000 -4025.818,506.864 " />
<polygon stroke="black" stroke-width="1" fill="rgb(14, 200, 30)" fill-opacity="0.25" points="-1830.676,525.094 -1836.606,515.272 -1938.278,514.880 -1934.362,521.134 -1932.478,524.248 " />
<polygon stroke="black" stroke-width="1" fill="rgb(14, 200, 30)" fill-opacity="0.25" points="-1932.478,524.248 -1934.362,521.134 -1938.278,514.880 -2150.920,514.064 -2150.881,519.291 -2151.111,522.433 " />
<polygon stroke="black" stroke-width="1" fill="rgb(14, 200, 30)" fill-opacity="0.25" points="-1935.348,519.559 -1938.278,514.880 -1836.606,515.272 -1833.645,520.177 " />

</svg>
